<?xml version="1.0" encoding="UTF-8" standalone="no"?>
<!-- Created with Inkscape (http://www.inkscape.org/) -->

<svg
   width="200mm"
   height="200mm"
   viewBox="0 0 200 200"
   version="1.1"
   id="svg1"
   inkscape:version="1.3.2 (091e20ef0f, 2023-11-25)"
   sodipodi:docname="sphere-07-17-star.svg"
   xml:space="preserve"
   xmlns:inkscape="http://www.inkscape.org/namespaces/inkscape"
   xmlns:sodipodi="http://sodipodi.sourceforge.net/DTD/sodipodi-0.dtd"
   xmlns="http://www.w3.org/2000/svg"
   xmlns:svg="http://www.w3.org/2000/svg"><sodipodi:namedview
     id="namedview1"
     pagecolor="#ffffff"
     bordercolor="#000000"
     borderopacity="0.25"
     inkscape:showpageshadow="2"
     inkscape:pageopacity="0.0"
     inkscape:pagecheckerboard="0"
     inkscape:deskcolor="#d1d1d1"
     inkscape:document-units="mm"
     showguides="true"
     inkscape:zoom="1.1124532"
     inkscape:cx="439.56907"
     inkscape:cy="466.98595"
     inkscape:window-width="1920"
     inkscape:window-height="1131"
     inkscape:window-x="0"
     inkscape:window-y="0"
     inkscape:window-maximized="1"
     inkscape:current-layer="layer1"><sodipodi:guide
       position="230.40204,77.903737"
       orientation="0,-1"
       id="guide1"
       inkscape:locked="false" /><sodipodi:guide
       position="201.812,104.812"
       orientation="0,-1"
       id="guide2"
       inkscape:locked="false" /><sodipodi:guide
       position="99.224235,99.093997"
       orientation="1,0"
       id="guide3"
       inkscape:locked="false" /><sodipodi:guide
       position="189.08099,55.394661"
       orientation="0,-1"
       id="guide4"
       inkscape:locked="false" /></sodipodi:namedview><defs
     id="defs1" /><g
     inkscape:label="Layer 1"
     inkscape:groupmode="layer"
     id="layer1"><path
       sodipodi:type="star"
       style="display:none;opacity:0.492;fill:#000000;fill-opacity:1;stroke-width:0;stroke-linejoin:bevel;stroke-miterlimit:11.2;paint-order:fill markers stroke"
       id="path1"
       inkscape:flatsided="false"
       sodipodi:sides="7"
       sodipodi:cx="100.73913"
       sodipodi:cy="100.40936"
       sodipodi:r1="100.00773"
       sodipodi:r2="50.00386"
       sodipodi:arg1="-0.78539816"
       sodipodi:arg2="-0.33659921"
       inkscape:rounded="0"
       inkscape:randomized="0"
       d="m 171.45527,29.69322 -23.51833,54.200915 52.18109,27.712545 -57.03942,15.40634 10.86784,58.07531 -47.60867,-34.98952 -38.629111,44.70618 -2.32761,-59.03756 L 6.3435001,133.43982 51.049681,94.810707 16.060164,47.202043 74.135471,58.069884 89.541816,1.0304618 117.25436,53.211552 Z"
       inkscape:transform-center-x="0.050443531"
       inkscape:transform-center-y="2.6631954"
       transform="matrix(0.51625367,-0.18304645,0.18304645,0.51625367,28.843089,70.982435)" /><path
       sodipodi:type="star"
       style="display:none;opacity:0.466;fill:#000000;fill-opacity:1;stroke-width:0;stroke-linejoin:bevel;stroke-miterlimit:11.2;paint-order:fill markers stroke"
       id="path2"
       inkscape:flatsided="false"
       sodipodi:sides="17"
       sodipodi:cx="103.38792"
       sodipodi:cy="108.62768"
       sodipodi:r1="95.635643"
       sodipodi:r2="47.817818"
       sodipodi:arg1="-0.78539816"
       sodipodi:arg2="-0.6005986"
       inkscape:rounded="0"
       inkscape:randomized="0"
       d="m 171.01253,41.003066 -28.17503,40.601022 48.03732,-11.605655 -40.93922,27.681329 48.98591,6.531128 -48.17433,11.02312 43.31869,23.78585 -48.90324,-7.12382 31.80104,37.82816 -43.02749,-24.30865 15.98847,46.76157 -31.34064,-38.21047 -1.98342,49.37957 -15.42107,-46.95175 -19.687437,45.32858 2.581213,-49.35193 L 49.340732,187.52684 69.575614,142.43998 24.488752,162.67486 59.64447,127.9423 10.292542,130.52351 55.621122,110.83607 8.6693782,95.415006 58.048944,93.431586 19.838478,62.090945 66.600045,78.079418 42.291392,35.051929 80.119552,66.852962 72.99573,17.949725 96.781581,61.268413 107.8047,13.094081 l 6.53113,48.985913 27.68133,-40.939216 -11.60565,48.037321 z"
       inkscape:transform-center-x="0.0050949539"
       inkscape:transform-center-y="-0.80911875"
       transform="rotate(-2.6801324,-22.722117,191.22725)" /><path
       style="opacity:0.997971;fill:none;fill-opacity:1;stroke:#000000;stroke-width:2.33345;stroke-linejoin:miter;stroke-miterlimit:11.2;stroke-dasharray:none;stroke-opacity:1;paint-order:fill markers stroke"
       d="M 99.18067,11.087579 C 158.5182,11.058283 198.52136,151.08663 148.03523,182.26505 97.26589,213.61837 -10.628837,114.58814 16.123859,61.251006 42.721997,8.2220169 185.61169,35.340526 190.98225,94.422602 196.34613,153.43117 60.799289,205.84787 25.177556,158.49944 -10.25847,111.39785 77.166782,-3.5942041 132.13457,17.685224 187.05487,38.946267 174.26685,182.67102 116.40917,193.66008 58.076336,204.73938 -7.1946565,74.490982 36.609621,34.407872 80.40312,-5.6653749 204.2704,70.846228 188.13327,127.97178 171.98635,185.13199 26.281589,185.53265 9.9426303,128.42704 -6.3945356,71.327694 117.44601,-5.379308 161.3904,34.572273 205.16728,74.371566 140.80891,204.46862 82.644099,193.64022 24.75607,182.86335 11.589445,39.009849 66.493236,17.732196 121.50483,-3.5872344 208.94035,111.83641 173.31024,158.86075 137.51816,206.09887 2.1526941,152.91578 7.7955049,93.918566 13.396912,35.354234 155.08955,9.1138801 181.3369,61.765881 207.67559,114.60111 100.98692,212.42268 50.751565,181.41145 0.52580917,150.40615 40.155636,11.116721 99.18067,11.087579 Z"
       id="path3"
       sodipodi:nodetypes="ssssssssssssssssss" /><path
       style="opacity:1;fill:none;fill-opacity:1;stroke:#000000;stroke-width:2.82847;stroke-linejoin:miter;stroke-miterlimit:11.2;stroke-dasharray:none;stroke-opacity:1;paint-order:fill markers stroke"
       d="M 70.937747,45.116088 162.30965,88.944275 99.196943,167.97959 36.074626,89.044326 127.00069,44.986677 149.53685,143.68193 48.564518,143.59017 Z"
       id="path4"
       sodipodi:nodetypes="cccccccc" /><g
       inkscape:label="Layer 1"
       id="layer1-3"
       transform="matrix(4.0673008,0,0,4.0673008,78.526903,76.971389)"><path
         style="fill:none;stroke:#000000;stroke-width:0.777;stroke-linecap:butt;stroke-linejoin:miter;stroke-miterlimit:2;stroke-dasharray:none;stroke-opacity:1"
         d="M 1.2671544,12.861189 8.5966336,5.3370185 8.6107284,1.3861494 1.3863274,1.3788325 1.381744,4.9841724"
         id="path1005"
         sodipodi:nodetypes="ccccc"
         inkscape:label="stroke" /><path
         style="fill:none;stroke:#000000;stroke-width:0.777;stroke-linecap:butt;stroke-linejoin:miter;stroke-miterlimit:2;stroke-dasharray:none;stroke-opacity:1"
         d="m 3.1325116,4.9662211 5.2912465,5.1288909 -2.3640012,2.514172 c 0,0 -0.8932683,-0.76445 -0.7872368,-1.26519 0.080255,-0.379011 0.3896366,-0.720852 0.7763352,-0.744396 0.2905007,-0.01769 0.766225,0.317323 0.766225,0.317323"
         id="path9627"
         sodipodi:nodetypes="cccssc"
         inkscape:label="stroke" /></g></g></svg>
