<?xml version="1.0" encoding="UTF-8" standalone="no"?>
<!-- Created with Inkscape (http://www.inkscape.org/) -->

<svg
   width="174mm"
   height="166mm"
   viewBox="0 0 174 166"
   version="1.1"
   id="svg1"
   xml:space="preserve"
   inkscape:version="1.4.2 (ebf0e940d0, 2025-05-08)"
   sodipodi:docname="sphere-03-05.svg"
   xmlns:inkscape="http://www.inkscape.org/namespaces/inkscape"
   xmlns:sodipodi="http://sodipodi.sourceforge.net/DTD/sodipodi-0.dtd"
   xmlns="http://www.w3.org/2000/svg"
   xmlns:svg="http://www.w3.org/2000/svg"><sodipodi:namedview
     id="namedview1"
     pagecolor="#ffffff"
     bordercolor="#000000"
     borderopacity="0.25"
     inkscape:showpageshadow="2"
     inkscape:pageopacity="0.0"
     inkscape:pagecheckerboard="0"
     inkscape:deskcolor="#d1d1d1"
     inkscape:document-units="mm"
     showguides="true"
     inkscape:zoom="1.1124532"
     inkscape:cx="305.63084"
     inkscape:cy="284.95582"
     inkscape:window-width="1920"
     inkscape:window-height="1131"
     inkscape:window-x="0"
     inkscape:window-y="0"
     inkscape:window-maximized="1"
     inkscape:current-layer="layer1"><sodipodi:guide
       position="86.616605,103.65091"
       orientation="1,0"
       id="guide1"
       inkscape:locked="false" /></sodipodi:namedview><defs
     id="defs1" /><g
     inkscape:label="Layer 1"
     inkscape:groupmode="layer"
     id="layer1"><path
       sodipodi:type="star"
       style="display:none;opacity:0.251;fill:none;stroke:#000000;stroke-width:6.00001;stroke-miterlimit:9.6;paint-order:fill markers stroke"
       id="path1"
       inkscape:flatsided="false"
       sodipodi:sides="5"
       sodipodi:cx="117.39126"
       sodipodi:cy="147.22421"
       sodipodi:r1="75.965851"
       sodipodi:r2="37.982922"
       sodipodi:arg1="-1.5838722"
       sodipodi:arg2="-0.95555369"
       inkscape:rounded="0"
       inkscape:randomized="0"
       d="m 116.39797,71.264856 22.91539,44.941234 50.0126,6.60071 -35.66041,35.68144 9.17709,49.60454 -44.95474,-22.88889 -44.340842,24.05658 7.876856,-49.82755 -36.581241,-34.73676 49.822897,-7.90623 z"
       inkscape:transform-center-x="0.061440318"
       inkscape:transform-center-y="-7.1956387"
       transform="rotate(0.59923724,4008.6319,-736.06546)" /><path
       style="opacity:0.997971;fill:none;stroke:#000000;stroke-width:3.5;stroke-miterlimit:9.6;stroke-dasharray:none;paint-order:fill markers stroke"
       d="M 134.26554,9.3187694 86.609786,157.23015 36.939859,8.2137894 165.54771,101.37184 8.5337693,101.21286 Z"
       id="path2" /><path
       sodipodi:type="star"
       style="opacity:0.997971;fill:none;stroke:#000000;stroke-width:1.83246;stroke-miterlimit:9.6;stroke-dasharray:none;stroke-opacity:1;paint-order:fill markers stroke"
       id="path3"
       inkscape:flatsided="true"
       sodipodi:sides="3"
       sodipodi:cx="107.04182"
       sodipodi:cy="105.95656"
       sodipodi:r1="19.372883"
       sodipodi:r2="8.700572"
       sodipodi:arg1="0.51879449"
       sodipodi:arg2="1.565992"
       inkscape:rounded="0"
       inkscape:randomized="0"
       d="M 123.86557,115.56228 90.311138,115.72349 106.94874,86.583899 Z"
       inkscape:transform-center-y="-8.2031677"
       transform="matrix(-0.96632712,-1.6542898,1.6547809,-0.94235707,15.060173,359.69071)"
       inkscape:transform-center-x="-0.12141495" /><path
       style="fill:none;stroke:#000000;stroke-width:3;stroke-linecap:butt;stroke-linejoin:miter;stroke-dasharray:none;stroke-opacity:1"
       d="m 87.856345,95.533322 c 0,0 -7.479486,-5.202847 -9.415135,-9.468085 -1.561354,-3.440377 -1.461925,-7.846349 -0.0098,-11.334391 1.544506,-3.710625 8.390392,-8.34419 8.390392,-8.34419 0,0 3.690184,2.178202 5.210458,3.666326 1.377426,1.348364 2.828975,2.982037 3.490676,4.792433 0.728117,1.992128 0.759194,4.450076 -0.161323,6.360909 -0.659798,1.369733 -2.074465,2.386654 -3.493489,2.93242 -1.50785,0.579901 -3.336411,0.756559 -4.843448,0.174561 -0.936666,-0.361725 -1.8015,-1.164226 -2.155956,-2.103672 -0.383028,-1.015116 -0.406934,-2.380101 0.247498,-3.245521 0.54292,-0.717887 1.646308,-0.895392 2.433945,-0.459754 0.888447,0.491287 0.731304,2.508622 0.731304,2.508622"
       id="path2630"
       sodipodi:nodetypes="csscssssssssc" /></g></svg>
