<?xml version="1.0" encoding="UTF-8" standalone="no"?>
<!-- Created with Inkscape (http://www.inkscape.org/) -->

<svg
   width="210mm"
   height="210mm"
   viewBox="0 0 210 210"
   version="1.1"
   id="svg1"
   xml:space="preserve"
   inkscape:version="1.3.2 (091e20ef0f, 2023-11-25)"
   sodipodi:docname="sphere-06-13-star.svg"
   inkscape:export-filename="sphere-06-13-star.png"
   inkscape:export-xdpi="96"
   inkscape:export-ydpi="96"
   xmlns:inkscape="http://www.inkscape.org/namespaces/inkscape"
   xmlns:sodipodi="http://sodipodi.sourceforge.net/DTD/sodipodi-0.dtd"
   xmlns="http://www.w3.org/2000/svg"
   xmlns:svg="http://www.w3.org/2000/svg"><sodipodi:namedview
     id="namedview1"
     pagecolor="#ffffff"
     bordercolor="#000000"
     borderopacity="0.25"
     inkscape:showpageshadow="2"
     inkscape:pageopacity="0.0"
     inkscape:pagecheckerboard="0"
     inkscape:deskcolor="#d1d1d1"
     inkscape:document-units="mm"
     showguides="true"
     inkscape:zoom="1.1124532"
     inkscape:cx="408.10707"
     inkscape:cy="418.44458"
     inkscape:window-width="1920"
     inkscape:window-height="1131"
     inkscape:window-x="0"
     inkscape:window-y="0"
     inkscape:window-maximized="1"
     inkscape:current-layer="layer1"
     inkscape:export-bgcolor="#ffffffff"><sodipodi:guide
       position="151.359,226.3658"
       orientation="0,-1"
       id="guide1"
       inkscape:locked="false" /></sodipodi:namedview><defs
     id="defs1" /><g
     inkscape:label="Layer 1"
     inkscape:groupmode="layer"
     id="layer1"
     style="display:inline"><path
       sodipodi:type="star"
       style="display:none;opacity:0.997971;fill:none;stroke:#000000;stroke-width:0.921999;stroke-miterlimit:9.6;paint-order:fill markers stroke"
       id="path1"
       inkscape:flatsided="false"
       sodipodi:sides="6"
       sodipodi:cx="104.45873"
       sodipodi:cy="113.10407"
       sodipodi:r1="84.899551"
       sodipodi:r2="42.449764"
       sodipodi:arg1="-1.5743867"
       sodipodi:arg2="-1.0507879"
       inkscape:rounded="0"
       inkscape:randomized="0"
       d="m 104.15391,28.205068 21.39758,48.060463 52.27953,-5.874943 -30.9228,42.561072 31.22762,42.33793 -52.32037,-5.49938 -21.05192,48.21287 -21.397573,-48.06047 -52.279529,5.87495 30.922794,-42.56108 -31.227614,-42.337927 52.320369,5.499387 z"
       inkscape:transform-center-x="1.3160156e-06"
       inkscape:transform-center-y="-1.4249331e-06" /><path
       style="display:inline;opacity:0.997971;fill:none;stroke:#000000;stroke-width:3.06923;stroke-miterlimit:9.6;stroke-dasharray:none;paint-order:fill markers stroke"
       d="M 45.19128,137.84706 165.65343,67.882663 105.68708,175.96892 45.842304,68.221537 165.60639,137.5798 104.21028,32.294971 Z"
       id="path2"
       sodipodi:nodetypes="ccccccc" /><path
       sodipodi:type="star"
       style="display:none;opacity:0.257;fill:none;stroke:#000000;stroke-width:0.921999;stroke-miterlimit:9.6;paint-order:fill markers stroke"
       id="path4"
       inkscape:flatsided="false"
       sodipodi:sides="13"
       sodipodi:cx="104.20647"
       sodipodi:cy="113.50874"
       sodipodi:r1="110.90982"
       sodipodi:r2="55.454899"
       sodipodi:arg1="-1.8224063"
       sodipodi:arg2="-1.5807453"
       inkscape:rounded="0"
       inkscape:randomized="0"
       d="m 76.593963,6.0911566 27.060797,51.9654324 26.02149,-52.4935655 -0.1884,58.5888835 47.43587,-34.387953 -27.39443,51.790327 57.98325,-8.404475 -48.32473,33.127234 55.24737,19.50436 -58.18441,6.87509 39.85499,42.94499 -54.71475,-20.95205 15.3323,56.54744 -38.7106,-43.97934 -12.70282,57.19554 L 91.471576,167.48159 53.643687,212.22244 67.847848,155.38113 13.560807,177.41768 52.553441,133.68821 -5.7562444,127.97216 49.09212,107.37241 0.11783591,75.213244 58.256831,82.462378 29.837367,31.227364 77.94805,64.664692 Z"
       inkscape:transform-center-x="-0.10784315"
       inkscape:transform-center-y="1.1994696"
       transform="matrix(0.81083275,0,0,0.81083275,22.415164,5.9420939)" /><path
       style="display:inline;opacity:1;fill:none;stroke:#000000;stroke-width:2.26476;stroke-miterlimit:9.6;stroke-dasharray:none;paint-order:fill markers stroke"
       d="M 194.15723,68.846747 C 215.80723,124.27657 114.64653,215.64878 61.683086,188.51833 8.6899691,161.37269 23.74219,25.803175 81.410633,10.987399 139.06504,-3.8247706 217.57733,107.67208 184.2421,156.98935 150.89969,206.31725 18.153329,175.02129 10.392609,115.9897 2.6311763,56.952696 122.78936,-7.5968991 167.75208,31.441064 212.71605,70.480122 165.6705,198.52984 106.1267,199.11508 46.616628,199.7 -2.9085543,72.671862 41.254244,32.779027 85.35839,-7.0608258 206.51533,54.995363 199.949,114.06542 193.37755,173.18159 61.417422,207.16316 27.142332,158.55121 -7.1079954,109.97439 69.164212,-2.8074199 127.01507,10.83334 184.8849,24.47857 202.74244,159.49612 150.38269,187.66642 97.986157,215.85651 -4.9389541,126.48359 15.600759,70.642764 36.148507,14.780085 172.50216,13.403924 194.15723,68.846747 Z"
       id="path5"
       sodipodi:nodetypes="ssssssssssssss" /><g
       inkscape:label="Layer 1"
       id="layer1-7"
       transform="matrix(4.4679286,0,0,4.4679286,84.849161,64.376341)"
       style="display:none"><path
         style="fill:none;stroke:#ffffff;stroke-width:1.39372;stroke-linecap:butt;stroke-linejoin:miter;stroke-dasharray:none;stroke-opacity:1"
         d="M 0.64814743,14.328856 7.3119925,8.6584813 5.5085478,6.8725279"
         id="path449"
         sodipodi:nodetypes="ccc"
         inkscape:label="oom" /><path
         style="fill:none;stroke:#ffffff;stroke-width:1.39372;stroke-linecap:butt;stroke-linejoin:miter;stroke-dasharray:none;stroke-opacity:1"
         d="M 8.5689465,14.387519 1.1844437,8.3197098 c 0,0 2.3848451,-1.1489596 3.3650913,-2.0137782 C 5.1601153,5.7672495 5.8720892,5.0498328 5.9303682,4.2376812 5.9781945,3.5711938 5.592905,2.9566247 5.0434075,2.5764333 4.6582417,2.3099414 4.1103923,2.2364894 3.6563961,2.351633 3.176124,2.4734408 2.7075133,2.8175762 2.565754,3.2923422 2.460548,3.644689 2.5957188,4.1309813 2.858955,4.3877373 3.1377273,4.6596475 3.9536808,4.6568169 3.9536808,4.6568169"
         id="path1005"
         sodipodi:nodetypes="ccssssssc"
         inkscape:label="fer" /><path
         style="opacity:0.997971;fill:#fefefe;fill-opacity:1;stroke:none;stroke-width:3.70636;stroke-miterlimit:9.6;stroke-dasharray:none;stroke-opacity:1;paint-order:fill markers stroke"
         d="M 1.5237529,8.3493212 4.7892426,6.2118079 7.1427088,8.656895 4.4931423,11.057644 Z"
         id="path9" /><path
         style="fill:none;stroke:#ffffff;stroke-width:1.7241;stroke-linecap:butt;stroke-linejoin:miter;stroke-dasharray:none;stroke-opacity:1"
         d="M 4.3928258,9.2802435 4.4029687,8.1950978"
         id="path2136"
         inkscape:label="dot"
         sodipodi:nodetypes="cc" /><path
         style="opacity:0.997971;fill:#fefefe;fill-opacity:1;stroke:none;stroke-width:3.70636;stroke-miterlimit:9.6;stroke-dasharray:none;stroke-opacity:1;paint-order:fill markers stroke"
         d="M 17.788568,6.8116059 -3.2240629,-11.998162"
         id="path10" /></g><g
       inkscape:label="Layer 1"
       id="g8"
       transform="matrix(4.7107943,0,0,4.7107943,81.902685,68.09824)"
       style="display:none"><path
         style="fill:none;stroke:#000000;stroke-width:0.777;stroke-linecap:butt;stroke-linejoin:miter;stroke-dasharray:none;stroke-opacity:1"
         d="M 1.2402054,12.800051 7.5604949,7.4220131 5.8500271,5.7281348"
         id="path6"
         sodipodi:nodetypes="ccc"
         inkscape:label="oom" /><path
         style="fill:none;stroke:#000000;stroke-width:0.777;stroke-linecap:butt;stroke-linejoin:miter;stroke-dasharray:none;stroke-opacity:1"
         d="M 8.7526464,12.85569 1.7488528,7.1007071 c 0,0 2.2618941,-1.0897249 3.1916035,-1.9099576 C 5.519558,4.6798392 6.194826,3.9994091 6.2501004,3.2291281 6.295461,2.5970015 5.9300352,2.0141166 5.4088671,1.6535261 5.0435586,1.4007732 4.5239537,1.331108 4.0933633,1.4403154 3.6378517,1.5558434 3.1934003,1.8822368 3.0589494,2.3325262 c -0.099782,0.3341815 0.02842,0.7954029 0.278085,1.0389218 0.2644002,0.2578918 1.0382871,0.2552072 1.0382871,0.2552072"
         id="path7"
         sodipodi:nodetypes="ccssssssc"
         inkscape:label="fer" /><path
         style="fill:none;stroke:#000000;stroke-width:0.777;stroke-linecap:butt;stroke-linejoin:miter;stroke-dasharray:none;stroke-opacity:1"
         d="m 4.7918263,8.0117203 0.00962,-1.0292009"
         id="path8"
         inkscape:label="dot"
         sodipodi:nodetypes="cc" /></g><rect
       style="display:inline;opacity:0.997971;fill:none;stroke:#ffffff;stroke-width:13.6155;stroke-miterlimit:9.6;paint-order:fill markers stroke"
       id="rect1"
       width="12.825046"
       height="19.752754"
       x="98.662674"
       y="91.851517"
       ry="0.61196983" /><path
       style="fill:none;stroke:#000000;stroke-width:2.601;stroke-linecap:butt;stroke-linejoin:miter;stroke-miterlimit:1.4;stroke-dasharray:none;stroke-opacity:1"
       d="m 96.853313,95.92838 10.474617,7.26469 -12.535827,16.40217 0.0085,-14.8796 20.414117,14.61806 0.0283,-32.532755 c -4.36906,4.665706 -13.63551,7.223259 -20.96586,0.03258"
       id="path1005-6"
       sodipodi:nodetypes="ccccccc"
       inkscape:label="stroke" /></g></svg>
