<?xml version="1.0" encoding="UTF-8" standalone="no"?>
<!-- Created with Inkscape (http://www.inkscape.org/) -->

<svg
   width="200mm"
   height="200mm"
   viewBox="0 0 200 200"
   version="1.1"
   id="svg1"
   xml:space="preserve"
   inkscape:version="1.3.2 (091e20ef0f, 2023-11-25)"
   sodipodi:docname="sphere-09-23-star.svg"
   xmlns:inkscape="http://www.inkscape.org/namespaces/inkscape"
   xmlns:sodipodi="http://sodipodi.sourceforge.net/DTD/sodipodi-0.dtd"
   xmlns="http://www.w3.org/2000/svg"
   xmlns:svg="http://www.w3.org/2000/svg"><sodipodi:namedview
     id="namedview1"
     pagecolor="#ffffff"
     bordercolor="#000000"
     borderopacity="0.25"
     inkscape:showpageshadow="2"
     inkscape:pageopacity="0.0"
     inkscape:pagecheckerboard="0"
     inkscape:deskcolor="#d1d1d1"
     inkscape:document-units="mm"
     showguides="true"
     inkscape:zoom="0.78662318"
     inkscape:cx="432.22729"
     inkscape:cy="440.49045"
     inkscape:window-width="1920"
     inkscape:window-height="1131"
     inkscape:window-x="0"
     inkscape:window-y="0"
     inkscape:window-maximized="1"
     inkscape:current-layer="layer1" /><defs
     id="defs1" /><g
     inkscape:label="Layer 1"
     inkscape:groupmode="layer"
     id="layer1"><path
       style="opacity:0.997971;fill:none;stroke:#000000;stroke-width:2.2822;stroke-miterlimit:11.2;stroke-dasharray:none;paint-order:fill markers stroke"
       d="M 75.393328,163.40357 40.610153,134.62448 56.036073,47.114813 144.43768,46.931711 159.79556,134.15933 125.1711,163.09021 168.1278,87.530193 100.10296,31.113328 32.228487,87.718696 Z"
       id="path2"
       sodipodi:nodetypes="cccccccccc" /><path
       style="opacity:0.997971;fill:none;stroke:#000000;stroke-width:1.3;stroke-miterlimit:11.2;stroke-dasharray:none;paint-order:fill markers stroke"
       d="M 99.79814,8.3368078 C 157.38912,8.0485158 202.92227,134.37609 158.37607,170.87868 113.78141,207.42097 -1.3387289,137.85367 10.35765,81.398219 22.026452,25.075877 154.87972,7.0752758 181.33911,58.146478 207.78312,109.18798 116.5632,207.14453 63.795964,184.33797 11.053542,161.54213 19.899317,28.065214 75.163342,12.339419 130.58807,-3.4321045 208.7225,105.78699 175.67364,152.99308 142.53919,200.32142 12.702756,164.18989 8.687675,106.55533 4.7025403,49.35063 127.23494,-3.9227779 166.43636,37.928234 205.63411,79.775323 144.47609,198.56677 87.660619,190.84377 30.87092,183.12426 3.6760234,52.414541 52.576928,22.525379 101.28013,-7.2429433 204.65547,76.184233 185.83294,130.07178 166.91144,184.24271 33.159321,185.24597 13.695824,131.2674 -5.8702776,77.004285 98.355989,-8.1366221 147.68735,21.758789 196.76356,51.499579 169.63231,182.38011 112.80263,190.34099 56.065959,198.28885 -5.8772171,80.099287 33.069312,38.082796 72.108945,-4.0341383 195.0409,48.913562 191.30566,106.21956 187.56944,163.54062 58.762824,200.09773 25.51978,153.25156 -7.794126,106.30553 69.401302,-3.4250831 124.86375,11.991211 180.29416,27.3986 189.78927,161.15858 137.05368,184.15587 84.347544,207.14032 -7.1747998,109.2158 19.249379,58.147369 45.539942,7.3371738 177.54645,25.417878 189.29282,81.407989 201.03323,137.36975 87.522127,206.89305 43.009216,171.00215 -1.6991541,134.95365 42.367745,8.6242968 99.79814,8.3368078 Z"
       id="path4"
       sodipodi:nodetypes="ssssssssssssssssssssssss" /><g
       inkscape:label="Layer 1"
       id="layer1-6"
       transform="matrix(6.0685597,0,0,6.0685597,73.306122,59.439527)"
       style="stroke-width:0.538288;stroke-dasharray:none"><path
         style="fill:none;stroke:#000000;stroke-width:0.538288;stroke-linecap:butt;stroke-linejoin:miter;stroke-miterlimit:2.6;stroke-dasharray:none;stroke-opacity:1"
         d="M 0.7474632,12.789468 9.0289254,9.1795693 1.3116104,6.0319038 c 0.01741,-0.00831 -0.1305739,-0.275925 -0.1305739,-0.275925 0,0 1.4719146,-0.082642 2.1797426,-0.2696697 C 4.2325015,5.2559755 5.2123728,5.0774833 5.8589075,4.4490357 6.2725016,4.047012 6.6369269,3.4430223 6.5675254,2.870426 6.4961476,2.2815243 6.0347565,1.6555011 5.471962,1.4679848 4.8734044,1.2685526 3.9975893,1.4394078 3.64501,1.9626021 3.449491,2.2527339 3.5157327,2.7654359 3.7710935,3.0045906 3.9306587,3.1540293 4.2228318,3.1214133 4.4259537,3.0405771 4.6027936,2.9702003 4.8186527,2.6260715 4.8186527,2.6260715"
         id="path1005"
         sodipodi:nodetypes="ccccsssssssc"
         inkscape:label="stroke" /><path
         style="fill:none;stroke:#000000;stroke-width:0.538288;stroke-linecap:butt;stroke-linejoin:miter;stroke-miterlimit:2;stroke-dasharray:none;stroke-opacity:1"
         d="m 0.57558872,5.8228028 6.07212968,0.00159 0.006,6.9792564 -5.99853835,-0.0074"
         id="path9627"
         sodipodi:nodetypes="cccc"
         inkscape:label="stroke" /><path
         style="fill:none;stroke:#000000;stroke-width:0.538288;stroke-linecap:butt;stroke-linejoin:miter;stroke-miterlimit:2;stroke-dasharray:none;stroke-opacity:1"
         d="M 4.041671,10.032205 4.0089296,8.4558592"
         id="path9685"
         sodipodi:nodetypes="cc"
         inkscape:label="stroke" /></g></g></svg>
