<?xml version="1.0" encoding="UTF-8" standalone="no"?>
<!-- Created with Inkscape (http://www.inkscape.org/) -->

<svg
   width="170mm"
   height="170mm"
   viewBox="0 0 170 170"
   version="1.1"
   id="svg1"
   xml:space="preserve"
   inkscape:version="1.3.2 (091e20ef0f, 2023-11-25)"
   sodipodi:docname="sphere-05-11-star.svg"
   inkscape:export-filename="sphere-05-11-star.png"
   inkscape:export-xdpi="161.3647"
   inkscape:export-ydpi="161.3647"
   xmlns:inkscape="http://www.inkscape.org/namespaces/inkscape"
   xmlns:sodipodi="http://sodipodi.sourceforge.net/DTD/sodipodi-0.dtd"
   xmlns="http://www.w3.org/2000/svg"
   xmlns:svg="http://www.w3.org/2000/svg"><sodipodi:namedview
     id="namedview1"
     pagecolor="#ffffff"
     bordercolor="#000000"
     borderopacity="0.25"
     inkscape:showpageshadow="2"
     inkscape:pageopacity="0.0"
     inkscape:pagecheckerboard="0"
     inkscape:deskcolor="#d1d1d1"
     inkscape:document-units="mm"
     showguides="true"
     inkscape:zoom="1.1124532"
     inkscape:cx="320.01346"
     inkscape:cy="339.34012"
     inkscape:window-width="1920"
     inkscape:window-height="1131"
     inkscape:window-x="0"
     inkscape:window-y="0"
     inkscape:window-maximized="1"
     inkscape:current-layer="layer1"
     inkscape:export-bgcolor="#ffffffff" /><defs
     id="defs1" /><g
     inkscape:label="Layer 1"
     inkscape:groupmode="layer"
     id="layer1"><path
       style="font-variation-settings:'wght' 700;opacity:1;fill:none;stroke:#000000;stroke-width:2.2;stroke-linecap:butt;stroke-miterlimit:11.2;stroke-dasharray:none;stroke-opacity:1;paint-order:fill markers stroke"
       d="M 84.967287,5.6531529 25.486503,135.56925 162.5171,95.389129 42.482608,18.154858 62.73963,159.51151 13.579572,51.564055 156.15221,51.632322 106.92852,159.44122 127.37229,18.272551 7.077823,95.331379 144.07985,135.66634 Z"
       id="path2"
       sodipodi:nodetypes="cccccccccccc" /><path
       style="font-variation-settings:'wght' 700;opacity:0.997971;fill:none;stroke:#000000;stroke-width:2.44532;stroke-linecap:butt;stroke-linejoin:bevel;stroke-dasharray:none;stroke-opacity:1;paint-order:fill markers stroke"
       d="M 65.781768,57.466343 84.869566,118.15921 104.63483,57.834627 53.47494,94.887411 116.59712,94.99635 Z"
       id="path4" /><g
       inkscape:label="Layer 1"
       id="layer1-3"
       transform="matrix(1.3656349,0,0,1.3656349,78.443509,74.783467)"
       style="stroke-width:1.20154;stroke-dasharray:none"><path
         style="fill:none;stroke:#000000;stroke-width:1.20154;stroke-linecap:butt;stroke-linejoin:miter;stroke-dasharray:none;stroke-opacity:1"
         d="M 1.2402054,12.800051 7.5604949,7.4220131 5.8500271,5.7281348"
         id="path449"
         sodipodi:nodetypes="ccc"
         inkscape:label="oom" /><path
         style="fill:none;stroke:#000000;stroke-width:1.20154;stroke-linecap:butt;stroke-linejoin:miter;stroke-dasharray:none;stroke-opacity:1"
         d="M 8.7526464,12.85569 1.7488528,7.1007071 c 0,0 2.2618941,-1.0897249 3.1916035,-1.9099576 C 5.519558,4.6798392 6.194826,3.9994091 6.2501004,3.2291281 6.295461,2.5970015 5.9300352,2.0141166 5.4088671,1.6535261 5.0435586,1.4007732 4.5239537,1.331108 4.0933633,1.4403154 3.6378517,1.5558434 3.1934003,1.8822368 3.0589494,2.3325262 c -0.099782,0.3341815 0.02842,0.7954029 0.278085,1.0389218 0.2644002,0.2578918 1.0382871,0.2552072 1.0382871,0.2552072"
         id="path1005"
         sodipodi:nodetypes="ccssssssc"
         inkscape:label="fer" /><path
         style="fill:none;stroke:#000000;stroke-width:1.20154;stroke-linecap:butt;stroke-linejoin:miter;stroke-dasharray:none;stroke-opacity:1"
         d="m 4.7918263,8.0117203 0.00962,-1.0292009"
         id="path2136"
         inkscape:label="dot"
         sodipodi:nodetypes="cc" /></g></g></svg>
