<?xml version="1.0" encoding="UTF-8" standalone="no"?>
<!-- Created with Inkscape (http://www.inkscape.org/) -->

<svg
   width="210mm"
   height="210mm"
   viewBox="0 0 210 210"
   version="1.1"
   id="svg1"
   xml:space="preserve"
   inkscape:version="1.3.2 (091e20ef0f, 2023-11-25)"
   sodipodi:docname="sphere-10-29-star.svg"
   inkscape:export-filename="sphere-10-29-star.png"
   inkscape:export-xdpi="96"
   inkscape:export-ydpi="96"
   xmlns:inkscape="http://www.inkscape.org/namespaces/inkscape"
   xmlns:sodipodi="http://sodipodi.sourceforge.net/DTD/sodipodi-0.dtd"
   xmlns="http://www.w3.org/2000/svg"
   xmlns:svg="http://www.w3.org/2000/svg"><sodipodi:namedview
     id="namedview1"
     pagecolor="#ffffff"
     bordercolor="#000000"
     borderopacity="0.25"
     inkscape:showpageshadow="2"
     inkscape:pageopacity="0.0"
     inkscape:pagecheckerboard="0"
     inkscape:deskcolor="#d1d1d1"
     inkscape:document-units="mm"
     showguides="true"
     inkscape:zoom="0.7866232"
     inkscape:cx="308.91537"
     inkscape:cy="340.06116"
     inkscape:window-width="1920"
     inkscape:window-height="1131"
     inkscape:window-x="0"
     inkscape:window-y="0"
     inkscape:window-maximized="1"
     inkscape:current-layer="layer1"
     inkscape:export-bgcolor="#ffffffff"><sodipodi:guide
       position="105.12427,99.643292"
       orientation="1,0"
       id="guide8"
       inkscape:locked="false" /><sodipodi:guide
       position="176.47558,105.3514"
       orientation="0,-1"
       id="guide9"
       inkscape:locked="false" /></sodipodi:namedview><defs
     id="defs1" /><g
     inkscape:label="Layer 1"
     inkscape:groupmode="layer"
     id="layer1"><path
       sodipodi:type="star"
       style="font-variation-settings:'wght' 700;display:none;opacity:0.997971;fill:#ffffff;stroke:#000000;stroke-width:1.375;paint-order:fill markers stroke"
       id="path1"
       inkscape:flatsided="false"
       sodipodi:sides="10"
       sodipodi:cx="54.505005"
       sodipodi:cy="93.682289"
       sodipodi:r1="71.18824"
       sodipodi:r2="35.59412"
       sodipodi:arg1="0.59751365"
       sodipodi:arg2="0.91167292"
       inkscape:rounded="0"
       inkscape:randomized="0"
       d="M 113.35895,133.73199 76.303702,121.82049 78.578229,160.67666 55.601304,129.25952 34.602351,162.03176 34.480157,123.10926 -1.7713903,137.27968 21.007821,105.7189 -16.649461,95.874888 20.330271,83.730962 -4.3489444,53.632593 32.706307,65.544091 30.431781,26.687921 53.408706,58.105056 74.407659,25.33282 74.529853,64.255315 110.7814,50.084894 88.002189,81.645677 125.65947,91.489691 88.679739,103.63362 Z"
       inkscape:transform-center-x="-0.0083204372"
       inkscape:transform-center-y="-0.25758485"
       transform="matrix(1.2743217,0,0,1.2743217,36.121825,3.0864178)" /><path
       style="font-variation-settings:'wght' 700;display:inline;opacity:0.997971;fill:#ffffff;stroke:#000000;stroke-width:1.097;paint-order:fill markers stroke;stroke-dasharray:none"
       d="M 105.26796,6.0874783 C 141.43055,5.7718879 205.41103,134.89835 187.3983,161.2227 169.38557,187.54705 25.266414,172.95681 12.794816,141.71868 0.3232181,110.48055 91.443228,0.54404975 126.92782,8.7439935 162.41241,16.943937 197.22999,154.47121 173.2302,177.15036 149.23041,199.82951 12.707041,154.26327 7.0769365,121.23473 1.4468316,88.206192 111.42291,-0.2178457 146.5849,16.444609 181.74689,33.107064 184.6399,172.85273 155.9335,189.93799 127.2271,207.02325 4.5289272,133.76929 5.8395163,99.926796 7.1501054,66.084303 133.99118,3.4823194 164.71274,27.050651 195.4343,50.618983 170.17215,187.51919 136.71845,198.61136 103.26475,209.70353 0.80523301,113.89809 10.374338,78.794815 19.943443,43.691536 156.6321,13.158248 180.6118,41.778089 204.5915,70.39793 150.67206,199.31628 116.02851,203.38222 81.384965,207.44816 0.80772551,88.898324 17.78741,57.983278 34.767094,27.068232 174.87403,26.027872 192.32366,59.021853 209.77329,92.015834 126.47595,207.1078 94.009592,203.40224 61.543237,199.69668 7.4734016,67.202071 29.746747,40.783863 52.020092,14.365655 189.7474,42.580067 199.76247,78.219738 209.77754,113.85941 105.0252,209.37208 72.952001,198.59992 40.878799,187.82776 15.598581,50.257394 45.866104,27.07211 76.133627,3.8868261 201.79412,63.947877 203.69217,99.946819 205.59022,135.94576 82.516975,207.26044 53.811338,189.76918 25.105701,172.27792 30.675966,30.880275 64.202801,15.318769 97.729636,-0.24273653 208.67595,85.907122 202.29453,121.7955 195.91311,157.68388 61.955396,200.14846 37.453083,177.30486 12.95077,154.46126 46.874915,17.183881 83.878486,9.0873256 120.88206,0.99077056 209.84886,110.98266 197.12598,142.53551 184.4031,174.08836 43.179492,189.63262 23.282125,160.5718 3.3847578,131.51098 69.105371,6.4030687 105.26796,6.0874783 Z"
       id="path2"
       sodipodi:nodetypes="zzzzzzzzzzzzzzzzzzzzzzzzzzzzzz" /><path
       sodipodi:type="star"
       style="font-variation-settings:'wght' 700;display:none;opacity:0.997971;fill:#ffffff;stroke:#000000;stroke-width:1.375;paint-order:fill markers stroke"
       id="path3"
       inkscape:flatsided="false"
       sodipodi:sides="10"
       sodipodi:cx="65.441742"
       sodipodi:cy="236.11084"
       sodipodi:r1="44.045124"
       sodipodi:r2="22.022558"
       sodipodi:arg1="-0.70230072"
       sodipodi:arg2="-0.38814146"
       inkscape:rounded="0"
       inkscape:randomized="0"
       d="m 99.06394,207.65876 -13.237809,20.11723 23.540249,5.07927 -22.534218,8.49419 16.058948,17.94582 -23.223331,-6.37333 2.443667,23.95769 -15.041913,-18.80647 -12.105008,20.81853 -1.114998,-24.05617 -22.029983,9.7274 13.237808,-20.11723 -23.540252,-5.07927 22.534222,-8.49419 -16.058945,-17.94582 23.223328,6.37333 -2.443667,-23.95769 15.041913,18.80647 12.105008,-20.81853 1.114998,24.05617 z"
       transform="matrix(0.91795303,0.36934765,-0.36934765,0.91795303,132.53891,-135.31538)" /><path
       style="font-variation-settings:'wght' 700;display:none;opacity:0.997971;fill:#ffffff;stroke:#000000;stroke-width:1.46335;paint-order:fill markers stroke"
       d="M 79.588923,141.69985 78.657409,69.381117 147.56031,92.497552 105.44311,150.0923 62.883274,92.169052 131.74002,69.7094 130.76076,141.27345 63.545676,119.63137 105.53089,60.795384 147.22383,120.0601 Z"
       id="path4" /><g
       inkscape:label="Layer 1"
       id="layer1-3"
       transform="matrix(2.9019952,0,0,2.9019952,92.389268,85.268075)"
       style="display:none"><path
         style="fill:none;stroke:#000000;stroke-width:0.777;stroke-linecap:butt;stroke-linejoin:miter;stroke-miterlimit:2;stroke-dasharray:none;stroke-opacity:1"
         d="M 8.7076262,4.2787067 1.4189867,10.274708 1.3743675,7.5102196 8.7404756,1.3676547 C 6.5894805,2.4070154 3.5257483,3.319627 1.3039121,1.329366"
         id="path1005"
         sodipodi:nodetypes="ccccc"
         inkscape:label="stroke" /><path
         style="fill:none;stroke:#000000;stroke-width:0.777;stroke-linecap:butt;stroke-linejoin:miter;stroke-miterlimit:2;stroke-dasharray:none;stroke-opacity:1"
         d="m 1.5428975,4.3810208 5.2666727,0.00359 -0.00625,8.3776092 -5.0554084,-0.0051 3.0611815,-2.469327"
         id="path9627"
         sodipodi:nodetypes="ccccc"
         inkscape:label="stroke" /></g><path
       style="font-variation-settings:'wght' 700;display:none;opacity:0.997971;fill:none;stroke:#000000;stroke-width:1.32317;paint-order:fill markers stroke"
       d="M 80.214978,140.64647 105.32602,61.476496 130.9754,140.22018 64.1675,92.312456 146.29996,91.968683 Z"
       id="path5"
       sodipodi:nodetypes="cccccc" /><path
       style="font-variation-settings:'wght' 700;display:none;opacity:0.997971;fill:none;stroke:#000000;stroke-width:1.32317;paint-order:fill markers stroke"
       d="M 79.624736,70.553995 106.05271,150.11926 130.20957,69.920696 63.922866,119.4366 146.78324,118.6042 Z"
       id="path6"
       sodipodi:nodetypes="cccccc" /><g
       inkscape:label="Layer 1"
       id="layer1-5"
       transform="matrix(0.51801701,0,0,0.51801701,50.104049,53.428285)"><path
         sodipodi:type="star"
         style="display:none;opacity:0.209;fill:none;stroke:#000000;stroke-width:2;stroke-miterlimit:9.6;stroke-opacity:1;paint-order:fill markers stroke"
         id="path1-3"
         inkscape:flatsided="false"
         sodipodi:sides="10"
         sodipodi:cx="53.389526"
         sodipodi:cy="91.411903"
         sodipodi:r1="69.344414"
         sodipodi:r2="34.672199"
         sodipodi:arg1="0.91204974"
         sodipodi:arg2="1.226209"
         inkscape:rounded="0"
         inkscape:randomized="0"
         d="M 95.837058,146.2467 65.102083,124.0459 55.499216,160.72422 43.683404,124.69783 14.355545,148.72679 25.972135,112.63566 -11.878472,114.83702 18.733377,92.466748 -13.182332,71.999655 24.73209,71.894917 10.941995,36.577108 41.67697,58.777912 51.279836,22.099589 63.095648,58.125981 92.423507,34.097018 80.806918,70.188142 118.65752,67.986786 88.045676,90.357058 119.96138,110.82415 82.046963,110.92889 Z"
         transform="matrix(1.1755741,-0.34769184,0.34769184,1.1755741,11.336464,9.7635263)" /><path
         style="display:inline;opacity:0.997971;fill:none;stroke:#000000;stroke-width:3.02938;stroke-miterlimit:9.6;stroke-opacity:1;paint-order:fill markers stroke"
         d="M 182.41367,204.03137 105.49995,-30.520179 29.325795,202.94494 225.69897,60.727317 -13.734582,136.14525 182.24266,-6.4679464 105.14848,227.98377 29.828452,-5.920378 225.39541,136.25973 -12.375016,61.652538 Z"
         id="path2-5"
         sodipodi:nodetypes="ccccccccccc" /><path
         style="display:none;opacity:0.997971;fill:none;stroke:#000000;stroke-width:2;stroke-miterlimit:9.6;stroke-opacity:1;paint-order:fill markers stroke"
         d="M 134.1748,177.43844 175.97397,47.533706 19.531495,99.029339 175.15483,148.36704 78.958186,17.024511 77.950477,177.44332 35.355095,48.363363 193.97252,98.069481 36.723263,149.56542 132.01298,16.56674 Z"
         id="path3-6"
         sodipodi:nodetypes="ccccccccccc" /><path
         sodipodi:type="star"
         style="display:none;opacity:0.209;fill:none;stroke:#000000;stroke-width:2;stroke-miterlimit:9.6;stroke-opacity:1;paint-order:fill markers stroke"
         id="path4-2"
         inkscape:flatsided="false"
         sodipodi:sides="10"
         sodipodi:cx="53.389526"
         sodipodi:cy="91.411903"
         sodipodi:r1="69.344414"
         sodipodi:r2="34.672199"
         sodipodi:arg1="0.91204974"
         sodipodi:arg2="1.226209"
         inkscape:rounded="0"
         inkscape:randomized="0"
         d="M 95.837058,146.2467 65.102083,124.0459 55.499216,160.72422 43.683404,124.69783 14.355545,148.72679 25.972135,112.63566 -11.878472,114.83702 18.733377,92.466748 -13.182332,71.999655 24.73209,71.894917 10.941995,36.577108 41.67697,58.777912 51.279836,22.099589 63.095648,58.125981 92.423507,34.097018 80.806918,70.188142 118.65752,67.986786 88.045676,90.357058 119.96138,110.82415 82.046963,110.92889 Z"
         transform="matrix(1.2253162,0.03826576,-0.03826576,1.2253162,43.961875,-15.389588)" /></g><circle
       style="display:none;opacity:0.997971;fill:none;stroke:#000000;stroke-width:0.7;stroke-miterlimit:9.6;stroke-dasharray:none;paint-order:fill markers stroke"
       id="path9"
       cx="105.26456"
       cy="104.59471"
       r="104.76599" /><rect
       style="opacity:0.997971;fill:#ffffff;fill-opacity:1;stroke:none;stroke-width:1.75011;stroke-miterlimit:9.6;stroke-dasharray:none;paint-order:fill markers stroke"
       id="rect9"
       width="20.442423"
       height="29.456537"
       x="94.984253"
       y="89.926796"
       ry="1.6132509" /><g
       inkscape:label="Layer 1"
       id="g8"
       transform="matrix(2.2426445,0,0,2.2426445,94.331982,89.093331)"
       style="display:inline"><path
         style="fill:none;stroke:#000000;stroke-width:0.777;stroke-linecap:butt;stroke-linejoin:miter;stroke-miterlimit:2;stroke-dasharray:none;stroke-opacity:1"
         d="M 8.7076262,4.2787067 1.4189867,10.274708 1.3743675,7.5102196 8.7404756,1.3676547 C 6.5894805,2.4070154 3.5257483,3.319627 1.3039121,1.329366"
         id="path7"
         sodipodi:nodetypes="ccccc"
         inkscape:label="stroke" /><path
         style="fill:none;stroke:#000000;stroke-width:0.777;stroke-linecap:butt;stroke-linejoin:miter;stroke-miterlimit:2;stroke-dasharray:none;stroke-opacity:1"
         d="m 1.5428975,4.3810208 5.2666727,0.00359 -0.00625,8.3776092 -5.0554084,-0.0051 3.0611815,-2.469327"
         id="path8"
         sodipodi:nodetypes="ccccc"
         inkscape:label="stroke" /></g></g></svg>
