<?xml version="1.0" encoding="UTF-8" standalone="no"?>
<!-- Created with Inkscape (http://www.inkscape.org/) -->

<svg
   width="170mm"
   height="170mm"
   viewBox="0 0 170 170"
   version="1.1"
   id="svg1"
   xml:space="preserve"
   inkscape:version="1.3.2 (091e20ef0f, 2023-11-25)"
   sodipodi:docname="star-of-emanation.svg"
   inkscape:export-filename="star-of-emanation.png"
   inkscape:export-xdpi="161.3647"
   inkscape:export-ydpi="161.3647"
   xmlns:inkscape="http://www.inkscape.org/namespaces/inkscape"
   xmlns:sodipodi="http://sodipodi.sourceforge.net/DTD/sodipodi-0.dtd"
   xmlns="http://www.w3.org/2000/svg"
   xmlns:svg="http://www.w3.org/2000/svg"><sodipodi:namedview
     id="namedview1"
     pagecolor="#ffffff"
     bordercolor="#000000"
     borderopacity="0.25"
     inkscape:showpageshadow="2"
     inkscape:pageopacity="0.0"
     inkscape:pagecheckerboard="0"
     inkscape:deskcolor="#d1d1d1"
     inkscape:document-units="mm"
     showguides="true"
     inkscape:zoom="1.1124532"
     inkscape:cx="319.11455"
     inkscape:cy="332.1488"
     inkscape:window-width="1920"
     inkscape:window-height="1131"
     inkscape:window-x="0"
     inkscape:window-y="0"
     inkscape:window-maximized="1"
     inkscape:current-layer="layer1"
     inkscape:export-bgcolor="#ffffffff" /><defs
     id="defs1" /><g
     inkscape:label="Layer 1"
     inkscape:groupmode="layer"
     id="layer1"
     transform="matrix(0.48823272,0,0,0.48823272,43.176078,43.222486)"><path
       style="font-variation-settings:'wght' 700;opacity:1;fill:none;stroke:#000000;stroke-width:3.67596;stroke-linecap:butt;stroke-miterlimit:10.2;stroke-dasharray:none;stroke-opacity:1;paint-order:fill markers stroke"
       d="M 85.329614,-48.693932 -14.056348,168.38181 214.90696,101.24519 14.342307,-27.804931 48.189602,208.38675 -33.951542,28.018226 204.27192,28.132292 122.02445,208.26929 156.18379,-27.608279 -44.815263,101.14869 184.10031,168.54405 Z"
       id="path2"
       sodipodi:nodetypes="cccccccccccc" /><path
       sodipodi:type="star"
       style="font-variation-settings:'wght' 700;display:none;opacity:0.997971;fill:none;stroke:#000000;stroke-width:0.20482;stroke-miterlimit:6.4;paint-order:fill markers stroke"
       id="path1"
       inkscape:flatsided="false"
       sodipodi:sides="31"
       sodipodi:cx="321.10901"
       sodipodi:cy="327.26447"
       sodipodi:r1="255.44049"
       sodipodi:r2="127.72023"
       sodipodi:arg1="-2.5920378"
       sodipodi:arg2="-2.4906961"
       inkscape:rounded="0"
       inkscape:randomized="0"
       d="m 103.28031,193.84594 116.22203,56.03285 -84.90611,-97.15036 102.56363,78.28118 -63.61185,-112.25317 84.70625,97.32467 L 218.54095,93.320804 281.92195,205.70447 267.73303,77.462845 307.19396,200.30452 319.11034,71.831794 333.03565,200.10231 370.56947,76.658186 358.38906,205.10615 420.00368,91.744429 382.21622,215.11115 l 83.17292,-98.63826 -61.84749,113.23484 101.3261,-79.87655 -83.37547,98.46711 115.33097,-57.84468 -101.49005,79.66813 124.61419,-33.44464 -115.44962,57.60751 128.79569,-7.67537 -124.68267,33.18845 127.70428,18.40812 -128.8112,7.41064 121.38464,43.73799 L 441.22233,370.68389 551.31782,437.9611 430.02334,393.97372 524.32237,482.03583 414.36539,414.53247 489.00733,519.7742 394.8895,431.51846 446.81852,549.6312 372.39303,444.23628 399.48314,570.38448 347.79699,452.16526 348.93912,581.18439 322.10834,454.98079 297.25573,581.5888 296.37878,452.56759 246.5489,571.58113 271.66168,445.02447 198.89456,551.57112 248.96895,432.66024 156.2437,522.37796 229.22965,415.9811 120.34245,485.19683 213.2519,395.66988 92.6606,441.54994 201.68983,372.55814 74.331456,393.22418 195.0168,347.59207 66.105414,342.19802 193.506,321.79379 68.31925,290.56049 197.21928,296.21948 80.882328,240.42561 206.00462,271.91615 Z"
       transform="matrix(0.4395515,0,0,0.4395515,-55.56178,-55.026705)"
       inkscape:transform-center-x="-0.021724427"
       inkscape:transform-center-y="-0.11892693" /><path
       style="font-variation-settings:'wght' 700;display:none;opacity:0.997971;fill:none;stroke:#000000;stroke-width:0.20482;stroke-miterlimit:6.4;paint-order:fill markers stroke"
       d="M 84.75798,-23.674077 -2.7817296,158.29065 194.69841,116.12846 40.372662,-14.374804 31.706084,187.53388 196.76114,70.880656 3.0983338,11.692424 75.08625,200.90634 180.64802,28.542828 -20.215394,50.570289 120.18785,195.72926 149.38509,-4.3147412 -26.644979,95.483845 159.58452,173.45728 107.46043,-21.776596 -14.97694,139.11289 186.95278,137.5397 62.10375,-21.419645 13.036757,174.60807 198.1802,93.615522 20.611257,-2.8329123 52.852036,196.23387 190.77826,48.956043 -10.383073,30.107728 97.838307,200.3157 166.43699,10.701912 -25.696452,72.661304 140.98407,186.45708 129.22181,-15.123493 -22.86815,117.71508 175.04326,156.80643 Z"
       id="path3"
       sodipodi:nodetypes="cccccccccccccccccccccccccccccccc" /><path
       style="font-variation-settings:'wght' 700;opacity:0.997971;fill:none;stroke:#000000;stroke-width:1.67086;stroke-miterlimit:6.4;stroke-dasharray:none;paint-order:fill markers stroke"
       d="M 83.391062,-79.794608 C -14.848597,-79.035726 -105.16554,108.62827 -44.418992,185.87821 16.327556,263.12816 219.98227,219.68278 243.90668,124.32042 267.8311,28.958042 108.67622,-105.69162 18.587445,-66.217448 -71.501331,-26.743273 -80.421238,181.48482 5.9340347,228.57403 92.289306,275.66322 262.53839,155.47032 246.91832,58.257547 231.29826,-38.955234 31.473506,-100.12935 -35.833958,-28.158677 -103.14143,43.811994 -28.750468,238.95749 69.270106,248.09813 167.29068,257.23878 276.07418,79.498475 223.39279,-3.5566859 170.71139,-86.611849 -36.492932,-63.868799 -69.872555,28.603928 -103.25218,121.07665 41.528115,270.71634 135.11952,240.53947 228.71091,210.3626 258.98984,4.049149 177.74819,-51.529518 96.506514,-107.10818 -85.121032,-4.014636 -79.259901,94.178785 -73.398772,192.37221 118.58086,272.66099 192.63958,208.02185 266.69831,143.38273 213.04598,-57.982443 116.53718,-77.02424 20.028384,-96.066038 -106.23614,69.940938 -62.224288,157.87824 -18.212444,245.81553 189.95355,244.17583 232.59789,155.58134 275.24223,66.986828 146.50673,-97.031549 50.315349,-76.503083 -45.876037,-55.974617 -96.426607,146.20656 -21.323626,209.70203 53.779356,273.1975 244.80185,189.70792 248.99019,91.45099 253.17854,-6.8059356 69.870345,-106.20001 -10.264675,-49.366013 -90.399698,7.4679804 -57.093896,212.63727 36.807625,241.27622 130.70915,269.91516 273.01763,118.13012 238.18319,26.24709 203.34874,-65.63594 -4.2543187,-85.082915 -55.517133,-1.2718945 -106.77995,82.539122 4.9298064,257.97173 102.48865,247.23578 200.04751,236.49984 270.84388,41.037126 202.64435,-29.604848 134.44481,-100.24682 -63.822731,-36.367207 -77.875028,60.857335 -91.927329,158.08187 79.980709,275.39356 165.48248,227.00186 250.98426,178.61017 238.92874,-29.28656 148.30929,-67.310552 57.689863,-105.33455 -99.136936,31.747586 -73.745641,126.63692 -48.354343,221.52625 155.70632,261.82523 215.20971,183.71122 274.71312,105.59719 181.63071,-80.553487 83.391062,-79.794608 Z"
       id="path5"
       sodipodi:nodetypes="zzzzzzzzzzzzzzzzzzzzzzzzzzzzzzzz" /><path
       style="font-variation-settings:'wght' 700;opacity:0.997971;fill:none;stroke:#000000;stroke-width:3.25103;stroke-linecap:butt;stroke-dasharray:none;stroke-opacity:1;paint-order:fill markers stroke"
       d="M 56.590768,43.347557 84.701311,132.72976 113.80956,43.889929 38.466541,98.457452 131.42638,98.617892 Z"
       id="path4"
       inkscape:label="pentagram" /><path
       sodipodi:type="star"
       style="font-variation-settings:'wght' 700;opacity:0.997971;fill:none;stroke:#000000;stroke-width:4.18935;stroke-miterlimit:10.2;stroke-dasharray:none;paint-order:fill markers stroke"
       id="path6"
       inkscape:flatsided="true"
       sodipodi:sides="3"
       sodipodi:cx="313.97308"
       sodipodi:cy="336.73654"
       sodipodi:r1="20.540583"
       sodipodi:r2="10.465557"
       sodipodi:arg1="1.5665984"
       sodipodi:arg2="2.613796"
       inkscape:rounded="0"
       inkscape:randomized="0"
       d="m 314.05931,357.27694 -17.91785,-30.73592 35.57702,-0.14935 z"
       transform="matrix(0.59200961,0,0,0.59200961,-100.80133,-116.45389)"
       inkscape:transform-center-x="0.0078916606"
       inkscape:transform-center-y="1.5056319"
       inkscape:label="triangle" /><circle
       style="font-variation-settings:'wght' 700;opacity:0.997971;fill:#000000;fill-opacity:1;stroke:none;stroke-width:5.95237;stroke-miterlimit:10.2;stroke-dasharray:none;paint-order:fill markers stroke"
       id="path7"
       cx="85.137405"
       cy="83.115746"
       r="3.1665766"
       inkscape:label="circle" /><path
       style="font-variation-settings:'wght' 700;opacity:0.997971;fill:none;fill-opacity:1;stroke:#000000;stroke-width:2.00519129;stroke-miterlimit:10.2;stroke-dasharray:none;paint-order:fill markers stroke;stroke-opacity:1"
       d="m 85.048886,92.799449 0.0233,-16.041368 z"
       id="path9" /></g></svg>
