<?xml version="1.0" encoding="UTF-8" standalone="no"?>
<!-- Created with Inkscape (http://www.inkscape.org/) -->

<svg
   width="10mm"
   height="14.14214mm"
   viewBox="0 0 10 14.142141"
   version="1.1"
   id="svg5"
   sodipodi:docname="25.svg"
   inkscape:version="1.2.1 (9c6d41e410, 2022-07-14)"
   xmlns:inkscape="http://www.inkscape.org/namespaces/inkscape"
   xmlns:sodipodi="http://sodipodi.sourceforge.net/DTD/sodipodi-0.dtd"
   xmlns="http://www.w3.org/2000/svg"
   xmlns:svg="http://www.w3.org/2000/svg">
  <sodipodi:namedview
     id="namedview7"
     pagecolor="#ffffff"
     bordercolor="#666666"
     borderopacity="1.0"
     inkscape:pageshadow="2"
     inkscape:pageopacity="0.0"
     inkscape:pagecheckerboard="0"
     inkscape:document-units="mm"
     showgrid="false"
     width="20mm"
     inkscape:zoom="14.288428"
     inkscape:cx="7.8035176"
     inkscape:cy="27.924695"
     inkscape:window-width="1680"
     inkscape:window-height="1013"
     inkscape:window-x="0"
     inkscape:window-y="0"
     inkscape:window-maximized="1"
     inkscape:current-layer="layer1"
     inkscape:showpageshadow="2"
     inkscape:deskcolor="#d1d1d1" />
  <defs
     id="defs2" />
  <g
     inkscape:label="Layer 1"
     inkscape:groupmode="layer"
     id="layer1">
    <path
       style="fill:none;stroke:#000000;stroke-width:1;stroke-linecap:butt;stroke-linejoin:miter;stroke-miterlimit:4;stroke-dasharray:none;stroke-opacity:1"
       d="M 4.4300508,2.8296775 C 4.4579742,3.5799184 3.9031579,4.0742689 3.3384694,4.0849487 2.773781,4.0956285 2.2794099,3.594867 2.1555311,3.0960808 2.0016726,2.4765837 2.3592128,1.6931419 2.8794107,1.3232187 4.1865541,0.39368289 6.2894198,0.27605052 7.6844692,1.0675667 8.7902525,1.6949605 9.7329197,2.9836651 9.4642292,4.4409732 9.1955387,5.8982813 7.5202217,6.9928803 5.0141812,7.0040559 2.5081407,7.0152315 0.75091249,8.0793699 0.5705566,9.647384 c -0.17245326,1.499309 0.670225,2.993957 1.8853915,3.577152 1.6301854,0.782375 4.126885,0.324482 5.3261761,-1.028779 C 8.2191075,11.702671 8.2868588,10.772007 7.920984,10.224081 7.6648144,9.8404466 7.0454278,9.6364468 6.6086434,9.7848286 6.0756136,9.9659063 5.6693701,10.463926 5.6650499,11.185479"
       id="path34847"
       sodipodi:nodetypes="czaaazzsaaaac" />
  </g>
</svg>
