<?xml version="1.0" encoding="UTF-8" standalone="no"?>
<!-- Created with Inkscape (http://www.inkscape.org/) -->

<svg
   width="10mm"
   height="14.14214mm"
   viewBox="0 0 10 14.142141"
   version="1.1"
   id="svg5"
   sodipodi:docname="50.svg"
   inkscape:version="1.1.1 (3bf5ae0d25, 2021-09-20)"
   xmlns:inkscape="http://www.inkscape.org/namespaces/inkscape"
   xmlns:sodipodi="http://sodipodi.sourceforge.net/DTD/sodipodi-0.dtd"
   xmlns="http://www.w3.org/2000/svg"
   xmlns:svg="http://www.w3.org/2000/svg">
  <sodipodi:namedview
     id="namedview7"
     pagecolor="#ffffff"
     bordercolor="#666666"
     borderopacity="1.0"
     inkscape:pageshadow="2"
     inkscape:pageopacity="0.0"
     inkscape:pagecheckerboard="0"
     inkscape:document-units="mm"
     showgrid="false"
     width="20mm"
     inkscape:zoom="14.288428"
     inkscape:cx="19.491297"
     inkscape:cy="27.924695"
     inkscape:window-width="1920"
     inkscape:window-height="1011"
     inkscape:window-x="0"
     inkscape:window-y="0"
     inkscape:window-maximized="1"
     inkscape:current-layer="layer1" />
  <defs
     id="defs2" />
  <g
     inkscape:label="Layer 1"
     inkscape:groupmode="layer"
     id="layer1">
    <path
       style="fill:none;stroke:#000000;stroke-width:0.707;stroke-linecap:butt;stroke-linejoin:miter;stroke-miterlimit:4;stroke-dasharray:none;stroke-opacity:1"
       d="M 4.5780447,2.7825885 C 4.6021344,3.224111 4.1445769,3.8506019 3.6636074,3.9156889 3.0505551,3.99865 2.3100269,3.4323365 2.1561098,2.8331494 1.990607,2.1888603 2.4478932,1.3790477 3.0153973,1.032005 4.4230519,0.17118963 6.7187122,0.08725446 7.9634586,1.1703523 8.7498459,1.8546157 8.9142432,3.3056696 8.4820882,4.2542809 7.8780973,5.5800841 6.1344204,6.069474 4.7542178,6.5359496 3.2512953,7.0439016 1.0331309,6.9974033 0.01993091,7.0234412 L 9.9885398,6.9065507 C 8.9394519,6.9087424 6.1209715,7.0300806 4.3736473,7.7584303 3.3232706,8.1962664 2.0240853,8.7263022 1.6339279,9.7953059 1.2330983,10.893551 1.4831337,12.535766 2.4389497,13.208984 c 1.4499439,1.02125 4.0522972,0.678578 5.2871885,-0.594345 0.511695,-0.527455 0.5843585,-1.58384 0.1797281,-2.197284 C 7.6518689,10.03228 7.0303101,9.8297213 6.5935257,9.9781031 6.0604959,10.159181 5.5986282,10.62928 5.6499322,11.378753"
       id="path34847"
       sodipodi:nodetypes="caaaaaaccaaaaaac" />
  </g>
</svg>
