<?xml version="1.0" encoding="UTF-8" standalone="no"?>
<!-- Created with Inkscape (http://www.inkscape.org/) -->

<svg
   width="210mm"
   height="210mm"
   viewBox="0 0 210 210"
   version="1.1"
   id="svg1"
   xml:space="preserve"
   inkscape:version="1.3.2 (091e20ef0f, 2023-11-25)"
   sodipodi:docname="sphere-10-29-star.svg"
   inkscape:export-filename="sphere-10-29-star.png"
   inkscape:export-xdpi="96"
   inkscape:export-ydpi="96"
   xmlns:inkscape="http://www.inkscape.org/namespaces/inkscape"
   xmlns:sodipodi="http://sodipodi.sourceforge.net/DTD/sodipodi-0.dtd"
   xmlns="http://www.w3.org/2000/svg"
   xmlns:svg="http://www.w3.org/2000/svg"><sodipodi:namedview
     id="namedview1"
     pagecolor="#ffffff"
     bordercolor="#000000"
     borderopacity="0.25"
     inkscape:showpageshadow="2"
     inkscape:pageopacity="0.0"
     inkscape:pagecheckerboard="0"
     inkscape:deskcolor="#d1d1d1"
     inkscape:document-units="mm"
     showguides="true"
     inkscape:zoom="1.1124532"
     inkscape:cx="409.9049"
     inkscape:cy="378.89236"
     inkscape:window-width="1920"
     inkscape:window-height="1011"
     inkscape:window-x="0"
     inkscape:window-y="0"
     inkscape:window-maximized="1"
     inkscape:current-layer="layer1"><sodipodi:guide
       position="105.12427,99.643292"
       orientation="1,0"
       id="guide8"
       inkscape:locked="false" /></sodipodi:namedview><defs
     id="defs1" /><g
     inkscape:label="Layer 1"
     inkscape:groupmode="layer"
     id="layer1"><path
       sodipodi:type="star"
       style="font-variation-settings:'wght' 700;display:none;opacity:0.997971;fill:#ffffff;stroke:#000000;stroke-width:1.375;paint-order:fill markers stroke"
       id="path1"
       inkscape:flatsided="false"
       sodipodi:sides="10"
       sodipodi:cx="54.505005"
       sodipodi:cy="93.682289"
       sodipodi:r1="71.18824"
       sodipodi:r2="35.59412"
       sodipodi:arg1="0.59751365"
       sodipodi:arg2="0.91167292"
       inkscape:rounded="0"
       inkscape:randomized="0"
       d="M 113.35895,133.73199 76.303702,121.82049 78.578229,160.67666 55.601304,129.25952 34.602351,162.03176 34.480157,123.10926 -1.7713903,137.27968 21.007821,105.7189 -16.649461,95.874888 20.330271,83.730962 -4.3489444,53.632593 32.706307,65.544091 30.431781,26.687921 53.408706,58.105056 74.407659,25.33282 74.529853,64.255315 110.7814,50.084894 88.002189,81.645677 125.65947,91.489691 88.679739,103.63362 Z"
       inkscape:transform-center-x="-0.0083204372"
       inkscape:transform-center-y="-0.25758485"
       transform="matrix(1.2743217,0,0,1.2743217,36.121825,3.0864178)" /><path
       style="font-variation-settings:'wght' 700;opacity:0.997971;fill:#ffffff;stroke:#000000;stroke-width:1.49709;paint-order:fill markers stroke"
       d="M 105.26796,6.0874783 187.3983,161.2227 12.794816,141.71868 126.92782,8.7439935 173.2302,177.15036 7.0769365,121.23473 146.5849,16.444609 155.9335,189.93799 5.8395163,99.926796 164.71274,27.050651 136.71845,198.61136 10.374338,78.794815 180.6118,41.778089 116.02851,203.38222 17.78741,57.983278 192.32366,59.021853 94.009592,203.40224 29.746747,40.783863 199.76247,78.219738 72.952001,198.59992 45.866104,27.07211 203.69217,99.946819 53.811338,189.76918 64.202801,15.318769 202.29453,121.7955 37.453083,177.30486 83.878486,9.0873256 197.12598,142.53551 23.282125,160.5718 Z"
       id="path2" /><path
       sodipodi:type="star"
       style="font-variation-settings:'wght' 700;display:none;opacity:0.997971;fill:#ffffff;stroke:#000000;stroke-width:1.375;paint-order:fill markers stroke"
       id="path3"
       inkscape:flatsided="false"
       sodipodi:sides="10"
       sodipodi:cx="65.441742"
       sodipodi:cy="236.11084"
       sodipodi:r1="44.045124"
       sodipodi:r2="22.022558"
       sodipodi:arg1="-0.70230072"
       sodipodi:arg2="-0.38814146"
       inkscape:rounded="0"
       inkscape:randomized="0"
       d="m 99.06394,207.65876 -13.237809,20.11723 23.540249,5.07927 -22.534218,8.49419 16.058948,17.94582 -23.223331,-6.37333 2.443667,23.95769 -15.041913,-18.80647 -12.105008,20.81853 -1.114998,-24.05617 -22.029983,9.7274 13.237808,-20.11723 -23.540252,-5.07927 22.534222,-8.49419 -16.058945,-17.94582 23.223328,6.37333 -2.443667,-23.95769 15.041913,18.80647 12.105008,-20.81853 1.114998,24.05617 z"
       transform="matrix(0.91795303,0.36934765,-0.36934765,0.91795303,132.53891,-135.31538)" /><path
       style="font-variation-settings:'wght' 700;display:none;opacity:0.997971;fill:#ffffff;stroke:#000000;stroke-width:1.46335;paint-order:fill markers stroke"
       d="M 79.588923,141.69985 78.657409,69.381117 147.56031,92.497552 105.44311,150.0923 62.883274,92.169052 131.74002,69.7094 130.76076,141.27345 63.545676,119.63137 105.53089,60.795384 147.22383,120.0601 Z"
       id="path4" /><g
       inkscape:label="Layer 1"
       id="layer1-3"
       transform="matrix(2.9019952,0,0,2.9019952,92.389268,85.268075)"
       style="display:none"><path
         style="fill:none;stroke:#000000;stroke-width:0.777;stroke-linecap:butt;stroke-linejoin:miter;stroke-miterlimit:2;stroke-dasharray:none;stroke-opacity:1"
         d="M 8.7076262,4.2787067 1.4189867,10.274708 1.3743675,7.5102196 8.7404756,1.3676547 C 6.5894805,2.4070154 3.5257483,3.319627 1.3039121,1.329366"
         id="path1005"
         sodipodi:nodetypes="ccccc"
         inkscape:label="stroke" /><path
         style="fill:none;stroke:#000000;stroke-width:0.777;stroke-linecap:butt;stroke-linejoin:miter;stroke-miterlimit:2;stroke-dasharray:none;stroke-opacity:1"
         d="m 1.5428975,4.3810208 5.2666727,0.00359 -0.00625,8.3776092 -5.0554084,-0.0051 3.0611815,-2.469327"
         id="path9627"
         sodipodi:nodetypes="ccccc"
         inkscape:label="stroke" /></g><path
       style="font-variation-settings:'wght' 700;display:inline;opacity:0.997971;fill:none;stroke:#000000;stroke-width:1.32317;paint-order:fill markers stroke"
       d="M 80.214978,140.64647 105.32602,61.476496 130.9754,140.22018 64.1675,92.312456 146.29996,91.968683 Z"
       id="path5"
       sodipodi:nodetypes="cccccc" /><path
       style="font-variation-settings:'wght' 700;display:inline;opacity:0.997971;fill:none;stroke:#000000;stroke-width:1.32317;paint-order:fill markers stroke"
       d="M 79.624736,70.553995 106.05271,150.11926 130.20957,69.920696 63.922866,119.4366 146.78324,118.6042 Z"
       id="path6"
       sodipodi:nodetypes="cccccc" /><g
       inkscape:label="Layer 1"
       id="g8"
       transform="matrix(1.5033146,0,0,1.5033146,98.917986,95.10097)"
       style="display:inline"><path
         style="fill:none;stroke:#000000;stroke-width:0.777;stroke-linecap:butt;stroke-linejoin:miter;stroke-miterlimit:2;stroke-dasharray:none;stroke-opacity:1"
         d="M 8.7076262,4.2787067 1.4189867,10.274708 1.3743675,7.5102196 8.7404756,1.3676547 C 6.5894805,2.4070154 3.5257483,3.319627 1.3039121,1.329366"
         id="path7"
         sodipodi:nodetypes="ccccc"
         inkscape:label="stroke" /><path
         style="fill:none;stroke:#000000;stroke-width:0.777;stroke-linecap:butt;stroke-linejoin:miter;stroke-miterlimit:2;stroke-dasharray:none;stroke-opacity:1"
         d="m 1.5428975,4.3810208 5.2666727,0.00359 -0.00625,8.3776092 -5.0554084,-0.0051 3.0611815,-2.469327"
         id="path8"
         sodipodi:nodetypes="ccccc"
         inkscape:label="stroke" /></g></g></svg>
