<?xml version="1.0" encoding="UTF-8" standalone="no"?>
<!-- Created with Inkscape (http://www.inkscape.org/) -->

<svg
   width="210mm"
   height="297mm"
   viewBox="0 0 210 297"
   version="1.1"
   id="svg1"
   xml:space="preserve"
   inkscape:version="1.3.2 (091e20ef0f, 2023-11-25)"
   sodipodi:docname="sphere-03-05.svg"
   xmlns:inkscape="http://www.inkscape.org/namespaces/inkscape"
   xmlns:sodipodi="http://sodipodi.sourceforge.net/DTD/sodipodi-0.dtd"
   xmlns="http://www.w3.org/2000/svg"
   xmlns:svg="http://www.w3.org/2000/svg"><sodipodi:namedview
     id="namedview1"
     pagecolor="#ffffff"
     bordercolor="#000000"
     borderopacity="0.25"
     inkscape:showpageshadow="2"
     inkscape:pageopacity="0.0"
     inkscape:pagecheckerboard="0"
     inkscape:deskcolor="#d1d1d1"
     inkscape:document-units="mm"
     showguides="true"
     inkscape:zoom="0.78662318"
     inkscape:cx="396.6321"
     inkscape:cy="561.25984"
     inkscape:window-width="1920"
     inkscape:window-height="1131"
     inkscape:window-x="0"
     inkscape:window-y="0"
     inkscape:window-maximized="1"
     inkscape:current-layer="layer1" /><defs
     id="defs1" /><g
     inkscape:label="Layer 1"
     inkscape:groupmode="layer"
     id="layer1"><path
       sodipodi:type="star"
       style="display:none;opacity:0.251;fill:none;stroke:#000000;stroke-width:6.00001;stroke-miterlimit:9.6;paint-order:fill markers stroke"
       id="path1"
       inkscape:flatsided="false"
       sodipodi:sides="5"
       sodipodi:cx="117.39126"
       sodipodi:cy="147.22421"
       sodipodi:r1="75.965851"
       sodipodi:r2="37.982922"
       sodipodi:arg1="-1.5838722"
       sodipodi:arg2="-0.95555369"
       inkscape:rounded="0"
       inkscape:randomized="0"
       d="m 116.39797,71.264856 22.91539,44.941234 50.0126,6.60071 -35.66041,35.68144 9.17709,49.60454 -44.95474,-22.88889 -44.340842,24.05658 7.876856,-49.82755 -36.581241,-34.73676 49.822897,-7.90623 z"
       inkscape:transform-center-x="0.061440318"
       inkscape:transform-center-y="-7.1956387"
       transform="rotate(0.59923724,4008.6319,-736.06546)" /><path
       style="opacity:0.997971;fill:none;stroke:#000000;stroke-width:3.5;stroke-miterlimit:9.6;stroke-dasharray:none;paint-order:fill markers stroke"
       d="M 155.79215,40.59963 108.1364,188.51101 58.466473,39.49465 187.07432,132.6527 30.060383,132.49372 Z"
       id="path2" /><path
       sodipodi:type="star"
       style="opacity:0.997971;fill:none;stroke:#000000;stroke-width:2.85680541;stroke-miterlimit:9.6;stroke-dasharray:none;paint-order:fill markers stroke"
       id="path3"
       inkscape:flatsided="true"
       sodipodi:sides="3"
       sodipodi:cx="107.04182"
       sodipodi:cy="105.95656"
       sodipodi:r1="17.401146"
       sodipodi:r2="8.700572"
       sodipodi:arg1="-1.5707963"
       sodipodi:arg2="-0.52359878"
       inkscape:rounded="0"
       inkscape:randomized="0"
       d="m 107.04182,88.555412 15.06983,26.101718 -30.139668,0 z"
       inkscape:transform-center-y="5.3297289"
       transform="matrix(-1.2251447,0,0,-1.2251447,239.07184,235.77728)" /><path
       style="fill:none;stroke:#000000;stroke-width:1.67829;stroke-linecap:butt;stroke-linejoin:miter;stroke-dasharray:none;stroke-opacity:1"
       d="m 108.84712,117.23907 c 0,0 -4.59925,-3.19931 -5.78951,-5.82207 -0.9601,-2.11554 -0.89896,-4.82484 -0.006,-6.96969 0.94974,-2.28172 5.15938,-5.13097 5.15938,-5.13097 0,0 2.26915,1.33941 3.20399,2.25448 0.847,0.82913 1.73958,1.8337 2.14647,2.94694 0.44773,1.22499 0.46684,2.73642 -0.0992,3.91142 -0.40572,0.84227 -1.27562,1.46759 -2.1482,1.80319 -0.9272,0.35659 -2.05161,0.46522 -2.97831,0.10734 -0.57597,-0.22243 -1.10777,-0.7159 -1.32573,-1.29358 -0.23553,-0.62421 -0.25023,-1.46356 0.15219,-1.99572 0.33385,-0.44144 1.01234,-0.55059 1.49667,-0.28271 0.54632,0.3021 0.44969,1.54259 0.44969,1.54259"
       id="path2630"
       sodipodi:nodetypes="csscssssssssc" /></g></svg>
