<?xml version="1.0" encoding="UTF-8" standalone="no"?>
<!-- Created with Inkscape (http://www.inkscape.org/) -->

<svg
   width="210mm"
   height="210mm"
   viewBox="0 0 210 210"
   version="1.1"
   id="svg1"
   inkscape:version="1.3.2 (091e20ef0f, 2023-11-25)"
   sodipodi:docname="sphere-08-19-star.svg"
   xml:space="preserve"
   inkscape:export-filename="sphere-08-19-star.png"
   inkscape:export-xdpi="96"
   inkscape:export-ydpi="96"
   xmlns:inkscape="http://www.inkscape.org/namespaces/inkscape"
   xmlns:sodipodi="http://sodipodi.sourceforge.net/DTD/sodipodi-0.dtd"
   xmlns="http://www.w3.org/2000/svg"
   xmlns:svg="http://www.w3.org/2000/svg"><sodipodi:namedview
     id="namedview1"
     pagecolor="#ffffff"
     bordercolor="#000000"
     borderopacity="0.25"
     inkscape:showpageshadow="2"
     inkscape:pageopacity="0.0"
     inkscape:pagecheckerboard="0"
     inkscape:deskcolor="#d1d1d1"
     inkscape:document-units="mm"
     showguides="true"
     inkscape:zoom="0.78662318"
     inkscape:cx="334.34052"
     inkscape:cy="408.70903"
     inkscape:window-width="1920"
     inkscape:window-height="1131"
     inkscape:window-x="0"
     inkscape:window-y="0"
     inkscape:window-maximized="1"
     inkscape:current-layer="layer1"
     inkscape:export-bgcolor="#ffffffff" /><defs
     id="defs1" /><g
     inkscape:label="Layer 1"
     inkscape:groupmode="layer"
     id="layer1"><path
       style="font-variation-settings:'wght' 700;display:none;opacity:1;fill:none;stroke:#000000;stroke-width:0.899999;stroke-miterlimit:6.4;paint-order:fill markers stroke"
       d="M 37.810904,171.53026 104.26185,9.3903065 172.15394,171.05277 9.7573771,104.60165 171.3795,36.927131 105.05941,199.08956 37.185312,37.444454 199.36639,103.85053 Z"
       id="path2"
       sodipodi:nodetypes="ccccccccc" /><path
       style="font-variation-settings:'wght' 700;display:none;opacity:1;fill:none;stroke:#000000;stroke-width:0.4;stroke-miterlimit:6.4;stroke-dasharray:none;paint-order:fill markers stroke"
       d="M 105.07536,139.14506 73.882389,120.48862 76.713529,84.18721 110.52236,70.699059 137.72767,94.752183 128.2197,129.85229 92.526061,137.02352 70.231639,108.33941 86.056693,75.572215 122.40851,75.062352 138.98905,107.39014 117.54719,136.71901 81.611135,130.48776 71.203752,95.618104 97.762668,70.74641 l 34.159722,12.704625 3.79386,36.217155 z"
       id="path4"
       sodipodi:nodetypes="cccccccccccccccccc" /><path
       style="font-variation-settings:'wght' 700;display:none;opacity:1;fill:none;stroke:#000000;stroke-width:0.488;stroke-miterlimit:6.4;stroke-dasharray:none;paint-order:fill markers stroke"
       d="M 90.519222,118.65796 104.48469,84.834727 118.5742,118.63164 84.697399,104.66599 118.48575,90.621884 104.54759,124.44987 90.461837,90.656597 124.29367,104.61272 Z"
       id="path5"
       sodipodi:nodetypes="ccccccccc" /><path
       style="font-variation-settings:'wght' 700;display:none;opacity:0.997971;fill:none;stroke:#000000;stroke-width:0.1;stroke-miterlimit:6.4;stroke-dasharray:none;paint-order:fill markers stroke"
       d="M 97.813086,70.755795 C 122.68569,74.975562 135.62077,119.73568 117.52761,136.78781 92.370384,137.50743 71.089189,95.709038 85.843625,75.329991 110.75671,70.768344 138.9074,107.34061 127.98596,130.53761 105.02451,139.20483 69.907694,108.39906 76.443461,84.085855 97.726797,70.780007 137.9998,94.758693 135.56193,119.68858 117.5637,136.79787 73.672183,120.44084 71.003387,95.630276 85.78814,75.345009 131.96735,83.140539 138.90884,107.22115 128.22927,130.65135 81.282676,130.84089 70.070154,108.4475 76.640683,84.077927 122.88401,75.052256 137.88363,94.674744 135.58377,119.5469 92.432906,137.24697 73.699964,120.48339 71.237815,95.50461 110.67146,70.779208 132.01898,83.385812 138.68997,107.30424 104.90023,139.16084 81.291728,130.80332 70.139801,108.3854 97.872692,70.783373 122.63461,75.061957 138.01405,94.687951 117.46308,136.78931 92.425969,137.21053 73.821467,120.52114 85.813339,75.37478 110.52579,70.742322 c 21.55661,12.617705 17.4057,59.706818 -5.513,68.473108 C 81.230373,130.58668 76.358785,83.892612 97.813086,70.755795 Z"
       id="path6"
       sodipodi:nodetypes="cccccccccccccccccc" /><path
       style="font-variation-settings:'wght' 700;display:none;opacity:1;fill:none;stroke:#000000;stroke-width:0.379;stroke-miterlimit:10.2;stroke-dasharray:none;paint-order:fill markers stroke"
       d="M 117.2996,137.2455 86.050115,74.823711 128.30213,130.5291 76.622221,83.595041 136.01343,120.206 70.911657,95.096405 139.54576,107.85178 69.69852,107.86853 138.30661,95.016832 73.376659,120.28528 132.54422,83.526873 81.175622,130.4456 123.03745,74.811866 92.075792,137.29594 110.97999,70.352046 104.66426,139.53672 98.10332,70.32926 Z"
       id="path7"
       sodipodi:nodetypes="cccccccccccccccccc" /><path
       style="font-variation-settings:'wght' 700;display:none;opacity:1;fill:none;stroke:#000000;stroke-width:0.479;stroke-miterlimit:10.2;stroke-dasharray:none;paint-order:fill markers stroke"
       d="M 117.2996,137.2455 C 95.649863,145.68638 66.27704,87.124989 86.050115,74.823711 105.82319,62.522433 145.48072,114.80568 128.30213,130.5291 111.12354,146.25252 62.638865,102.18668 76.622221,83.595041 90.605577,65.003407 146.34412,99.368811 136.01343,120.206 125.68274,141.04319 64.57343,117.48062 70.911657,95.096405 77.249884,72.71219 141.67846,84.6736 139.54576,107.85178 c -2.1327,23.17818 -67.692592,23.19158 -69.84724,0.0168 C 67.543872,84.693703 131.92378,72.664488 138.30661,95.016832 144.68944,117.36918 83.758983,141.05666 73.376659,120.28528 62.994335,99.513898 118.53759,65.026519 132.54422,83.526873 146.55085,102.02723 98.340982,146.05174 81.175622,130.4456 64.010262,114.83946 103.2675,62.621047 123.03745,74.811866 c 19.76995,12.190819 -9.29693,70.828184 -30.961658,62.484074 -21.664729,-8.34411 -3.8807,-71.163748 18.904198,-66.943894 22.7849,4.219854 16.84925,69.144334 -6.31573,69.184674 -23.164983,0.0403 -29.34575,-64.897669 -6.56094,-69.20746 22.78481,-4.309791 40.84602,58.47536 19.19628,66.91624 z"
       id="path8"
       sodipodi:nodetypes="zzzzzzzzzzzzzzzzzz" /><path
       style="font-variation-settings:'wght' 700;display:inline;opacity:1;fill:none;stroke:#000000;stroke-width:2.68592;stroke-miterlimit:9.6;stroke-dasharray:none;paint-order:fill markers stroke"
       d="m 42.016781,77.311479 87.612509,-37.510408 37.68305,88.314969 -32.00036,33.38074 31.36643,-85.508999 -88.620782,-35.361356 -36.010771,89.058755 33.3392,32.40501 z"
       id="path9"
       sodipodi:nodetypes="ccccccccc" /><path
       sodipodi:type="star"
       style="font-variation-settings:'wght' 700;display:none;opacity:0.288;fill:none;stroke:#000000;stroke-width:0.488;stroke-miterlimit:10.2;stroke-dasharray:none;paint-order:fill markers stroke"
       id="path10"
       inkscape:flatsided="false"
       sodipodi:sides="8"
       sodipodi:cx="105.41819"
       sodipodi:cy="105.2198"
       sodipodi:r1="20.312956"
       sodipodi:r2="10.156477"
       sodipodi:arg1="-1.5688397"
       sodipodi:arg2="-1.1761406"
       inkscape:rounded="0"
       inkscape:randomized="0"
       d="m 105.45793,84.906886 3.86533,10.937179 10.48644,-4.95956 -5.00056,10.466945 10.92197,3.9081 -10.93718,3.86532 4.95956,10.48644 -10.46695,-5.00056 -3.90809,10.92197 -3.86533,-10.93718 -10.486435,4.95956 5.000557,-10.46695 -10.921969,-3.90809 10.937179,-3.86533 -4.959559,-10.486432 10.466947,5.000557 z"
       inkscape:transform-center-y="-1.733022e-06"
       transform="rotate(21.815345,106.8759,102.75302)" /><path
       style="font-variation-settings:'wght' 700;display:none;opacity:1;fill:none;stroke:#000000;stroke-width:0.488;stroke-miterlimit:9.6;stroke-dasharray:none;paint-order:fill markers stroke"
       d="m 85.203779,99.686822 28.610291,-12.891378 7.69453,28.570416 -12.34928,8.6451 14.54155,-24.746666 -28.089445,-12.430695 -8.014816,28.385881 12.410131,8.6916 z"
       id="path11"
       sodipodi:nodetypes="ccccccccc" /><g
       inkscape:label="Layer 1"
       id="layer1-4"
       transform="matrix(4.3303577,0,0,4.3303577,83.231162,76.293848)"
       style="display:inline"><path
         style="fill:none;stroke:#000000;stroke-width:0.777;stroke-linecap:butt;stroke-linejoin:miter;stroke-miterlimit:2;stroke-dasharray:none;stroke-opacity:1"
         d="M 9.044403,7.903529 0.75149691,11.978932 C 1.496499,8.3328866 4.0313675,4.0743973 6.867525,1.9414687 7.2699965,1.6387905 8.0720058,0.98559813 8.5405087,1.6269678 9.1841145,2.5080493 8.5715457,2.9990249 8.286405,3.2668994 6.5385767,4.908891 0.6440727,1.3068525 0.6440727,1.3068525"
         id="path1005"
         sodipodi:nodetypes="ccsssc"
         inkscape:label="stroke" /><path
         style="fill:none;stroke:#000000;stroke-width:0.777;stroke-linecap:butt;stroke-linejoin:miter;stroke-miterlimit:2;stroke-dasharray:none;stroke-opacity:1"
         d="M 4.2601913,8.015466 6.7208878,6.8488495 8.4570032,10.522615 6.0899368,11.673143"
         id="path9627"
         sodipodi:nodetypes="cccc"
         inkscape:label="stroke" /></g><path
       sodipodi:type="star"
       style="font-variation-settings:'wght' 700;display:none;opacity:0.199;fill:none;stroke:#000000;stroke-width:0.478999;stroke-miterlimit:9.6;paint-order:fill markers stroke"
       id="path1"
       inkscape:flatsided="false"
       sodipodi:sides="19"
       sodipodi:cx="104.2073"
       sodipodi:cy="107.70147"
       sodipodi:r1="76.431358"
       sodipodi:r2="38.215675"
       sodipodi:arg1="1.556027"
       sodipodi:arg2="1.721374"
       inkscape:rounded="0"
       inkscape:randomized="0"
       d="M 105.3361,184.12449 98.474592,145.48472 80.460421,180.3502 86.517005,141.57611 58.158087,168.70329 76.476435,133.99666 40.8459,150.44589 69.440935,123.56772 30.399904,127.55647 66.17291,111.41942 27.952084,102.51545 67.026501,98.868227 33.7677,78.036415 71.909208,87.274251 47.216539,56.772049 80.291915,77.893882 66.841211,41.026676 91.266224,71.743627 90.515079,32.506552 103.6429,69.489962 115.67271,32.134963 116.08074,71.377107 139.58789,39.952178 127.2319,77.20056 159.66903,55.111081 135.88799,86.32926 l 37.85204,-10.360293 -32.62904,21.805004 39.16509,2.491589 -37.94118,10.02892 36.234,15.07347 -39.14181,-2.83395 29.3764,26.02191 -36.10082,-15.38973 19.3354,34.15047 -29.14773,-26.27779 7.19911,38.5783 -19.03604,-34.31824 z"
       inkscape:transform-center-x="0.09321689"
       inkscape:transform-center-y="0.42825664" /><path
       style="font-variation-settings:'wght' 700;display:none;opacity:1;fill:none;stroke:#000000;stroke-width:0.979;stroke-miterlimit:9.6;stroke-dasharray:none;paint-order:fill markers stroke"
       d="M 105.29162,184.4154 C 154.95661,183.69602 183.83755,62.453141 139.81073,39.458185 95.751301,16.446201 12.682777,109.49213 40.492336,150.6918 68.264964,191.83676 185.43648,149.6535 180.61163,100.24756 175.7877,50.851137 52.6876,32.135558 33.408651,77.869559 14.116727,123.63434 113.539,198.7491 152.28931,167.68454 191.05064,136.61114 139.34608,23.185381 90.468803,32.074067 41.650478,40.952032 33.2076,165.14741 80.363137,180.5877 127.58882,196.05095 194.35172,90.742731 160.17221,54.671438 125.94412,18.548874 17.020298,79.639664 29.958379,127.6918 42.878474,175.67714 167.54394,173.81294 179.02456,125.463 190.50384,77.118734 79.996261,19.416355 46.887943,56.467415 13.777517,93.520834 83.504446,196.8802 130.25901,180.04966 177.02566,163.21477 164.87472,39.094023 115.73151,31.645655 66.60221,24.199394 18.236682,139.10495 57.897459,169.04084 97.549609,198.97022 194.78234,120.97396 174.1518,75.78058 153.53587,30.619236 30.999421,52.971983 27.635513,102.50225 24.272092,152.02536 142.64381,190.73518 169.17289,148.78213 195.71375,106.81045 109.95588,16.421365 66.638229,40.703463 23.366611,64.959754 55.690366,185.13386 105.29162,184.4154 Z"
       id="path3"
       sodipodi:nodetypes="ssssssssssssssssssss" /><path
       style="font-variation-settings:'wght' 700;opacity:1;fill:none;stroke:#000000;stroke-width:1.21382;stroke-miterlimit:9.6;stroke-dasharray:none;paint-order:fill markers stroke"
       d="M 119.02525,9.2761542 C 176.44776,17.984578 209.63233,141.18492 164.3244,177.52186 119.03042,213.8476 6.0464043,154.72437 9.9763162,96.796299 13.908107,38.840499 133.90791,-4.5099697 173.89147,37.628477 213.91741,79.811586 164.28143,197.54052 106.13697,198.38528 48.069406,199.2289 -4.8528678,83.183577 33.836677,39.874529 72.541028,-3.4510948 193.86879,36.115104 199.52834,93.934703 205.19024,151.7783 93.772128,214.17117 47.40111,179.13307 1.1009215,144.14849 30.651986,20.153158 87.748471,9.7791582 144.8144,-0.58928654 216.04633,105.02262 185.03893,154.0386 154.02056,203.07197 28.029456,183.94357 12.947774,127.91721 -2.1427735,71.857917 97.282456,-7.987524 148.75048,18.871588 200.23881,45.741292 191.60445,173.03096 136.96068,192.70557 82.333994,212.37403 -5.4281683,119.83536 17.101218,66.325071 39.638367,12.79635 167.21737,10.89243 191.32095,63.734314 215.4246,116.5764 130.35582,211.66619 75.156892,193.60103 19.989312,175.54611 7.6180072,48.652592 58.25945,20.282082 108.89731,-8.0864117 210.64913,68.72902 197.23073,125.19946 183.81665,181.65176 58.420712,204.48148 25.973261,156.3778 -6.472238,108.27701 61.660515,0.57649233 119.02525,9.2761542 Z"
       id="path12"
       sodipodi:nodetypes="ssssssssssssssssssss" /></g></svg>
