<?xml version="1.0" encoding="UTF-8" standalone="no"?>
<!-- Created with Inkscape (http://www.inkscape.org/) -->

<svg
   width="100mm"
   height="100mm"
   viewBox="0 0 100 100"
   version="1.1"
   id="svg1"
   inkscape:version="1.4.3 (0d15f75042, 2025-12-25)"
   sodipodi:docname="flower-08-19.svg"
   xml:space="preserve"
   inkscape:export-filename="sphere-08-19-flower.png"
   inkscape:export-xdpi="96"
   inkscape:export-ydpi="96"
   xmlns:inkscape="http://www.inkscape.org/namespaces/inkscape"
   xmlns:sodipodi="http://sodipodi.sourceforge.net/DTD/sodipodi-0.dtd"
   xmlns:xlink="http://www.w3.org/1999/xlink"
   xmlns="http://www.w3.org/2000/svg"
   xmlns:svg="http://www.w3.org/2000/svg"><sodipodi:namedview
     id="namedview1"
     pagecolor="#ffffff"
     bordercolor="#000000"
     borderopacity="0.25"
     inkscape:showpageshadow="2"
     inkscape:pageopacity="0.0"
     inkscape:pagecheckerboard="0"
     inkscape:deskcolor="#d1d1d1"
     inkscape:document-units="mm"
     showguides="true"
     inkscape:zoom="0.55622658"
     inkscape:cx="177.08611"
     inkscape:cy="244.50467"
     inkscape:window-width="1536"
     inkscape:window-height="891"
     inkscape:window-x="0"
     inkscape:window-y="0"
     inkscape:window-maximized="1"
     inkscape:current-layer="layer1"
     inkscape:export-bgcolor="#ffffffff"><sodipodi:guide
       position="103.93318,165.09683"
       orientation="1,0"
       id="guide2"
       inkscape:locked="false" /><sodipodi:guide
       position="108.98774,62.472322"
       orientation="0,-1"
       id="guide17"
       inkscape:locked="false" /></sodipodi:namedview><defs
     id="defs1" /><g
     inkscape:label="Layer 1"
     inkscape:groupmode="layer"
     id="layer1"><path
       sodipodi:type="star"
       style="display:none;opacity:0.323;fill:#d69e54;fill-rule:evenodd;stroke-width:1.5;stroke-linecap:square;stroke-linejoin:round;stroke-miterlimit:5;paint-order:stroke markers fill"
       id="path1"
       inkscape:flatsided="false"
       sodipodi:sides="8"
       sodipodi:cx="106.28766"
       sodipodi:cy="103.93318"
       sodipodi:r1="83.415627"
       sodipodi:r2="41.707809"
       sodipodi:arg1="-1.5707963"
       sodipodi:arg2="-1.1780972"
       inkscape:rounded="0"
       inkscape:randomized="0"
       d="m 106.28766,20.517555 15.96089,44.882636 43.02287,-20.450763 -20.45077,43.022868 44.88264,15.960884 -44.88264,15.96089 20.45076,43.02287 -43.02287,-20.45077 -15.96088,44.88264 L 90.326769,142.46617 47.303902,162.91694 67.754666,119.89407 22.872032,103.93318 67.754668,87.972292 47.303905,44.949425 90.326773,65.40019 Z"
       transform="translate(-2.52265)" /><g
       id="g13"
       inkscape:label="petals-8"
       transform="matrix(0.62759536,0,0,0.62759536,-15.067298,-15.894436)"><path
         style="font-variation-settings:normal;display:inline;opacity:1;fill:#ff0094;fill-opacity:1;stroke:#000000;stroke-width:1.5;stroke-linecap:butt;stroke-linejoin:miter;stroke-miterlimit:3.1;stroke-dasharray:none;stroke-dashoffset:0;stroke-opacity:1;paint-order:fill markers stroke;stop-color:#000000;stop-opacity:1"
         d="m 105.17355,106.39736 c 0,0 -7.680285,-46.674507 6.28928,-63.39609 13.96956,-16.721584 35.92956,-7.793904 34.64863,14.351931 -1.28093,22.145836 -40.93791,49.044159 -40.93791,49.044159 z"
         id="path2"
         sodipodi:nodetypes="czzc"
         inkscape:transform-center-x="-21.643814"
         inkscape:transform-center-y="-39.366968" /><use
         x="0"
         y="0"
         xlink:href="#path2"
         inkscape:transform-center-x="-38.334448"
         inkscape:transform-center-y="-24.209953"
         id="use9"
         transform="rotate(41.061678,107.85498,105.49869)"
         sodipodi:insensitive="true"
         style="display:none" /><use
         x="0"
         y="0"
         xlink:href="#path2"
         inkscape:transform-center-x="-38.239844"
         inkscape:transform-center-y="23.019345"
         id="use10"
         transform="rotate(92.131054,105.54217,105.54328)"
         style="display:none" /><use
         x="0"
         y="0"
         xlink:href="#path2"
         inkscape:transform-center-x="-19.052934"
         inkscape:transform-center-y="40.7874"
         id="use11"
         transform="rotate(139.57419,105.12029,106.09065)"
         style="display:none" /><use
         x="0"
         y="0"
         xlink:href="#use9"
         inkscape:transform-center-x="38.819459"
         inkscape:transform-center-y="-23.035288"
         id="use21"
         transform="matrix(-1,0,0,1,207.6852,0)"
         style="display:none" /><use
         x="0"
         y="0"
         xlink:href="#path2"
         inkscape:transform-center-x="21.643811"
         inkscape:transform-center-y="-39.366968"
         id="use22"
         transform="matrix(-1,0,0,1,208.46796,0)"
         style="display:none" /><use
         x="0"
         y="0"
         xlink:href="#use10"
         inkscape:transform-center-x="38.239846"
         inkscape:transform-center-y="23.019345"
         id="use23"
         transform="matrix(-1,0,0,1,207.49192,0)"
         style="display:none" /><use
         x="0"
         y="0"
         xlink:href="#use11"
         inkscape:transform-center-x="19.052931"
         inkscape:transform-center-y="40.7874"
         id="use24"
         transform="matrix(-1,0,0,1,207.80837,0.81202879)"
         style="display:none" /><path
         style="font-variation-settings:normal;display:inline;fill:#ff6400;fill-opacity:1;stroke:#000000;stroke-width:1.5;stroke-linecap:butt;stroke-linejoin:miter;stroke-miterlimit:3.1;stroke-dasharray:none;stroke-dashoffset:0;stroke-opacity:1;paint-order:fill markers stroke;stop-color:#000000"
         d="m 105.24286,104.41494 c 0,0 24.86818,-40.237675 46.3852,-43.669594 21.51701,-3.431923 32.21058,17.724463 16.6978,33.581081 -15.51279,15.856623 -63.083,10.088513 -63.083,10.088513 z"
         id="use38"
         sodipodi:nodetypes="czzc"
         inkscape:transform-center-x="-21.643814"
         inkscape:transform-center-y="-39.366968" /><path
         style="font-variation-settings:normal;display:inline;fill:#ffff00;fill-opacity:1;stroke:#000000;stroke-width:1.5;stroke-linecap:butt;stroke-linejoin:miter;stroke-miterlimit:3.1;stroke-dasharray:none;stroke-dashoffset:0;stroke-opacity:1;paint-order:fill markers stroke;stop-color:#000000"
         d="m 104.70239,105.14316 c 0,0 46.92782,-5.93937 63.11837,8.64233 16.19056,14.5817 6.45246,36.19453 -15.63042,34.09099 -22.08289,-2.10355 -47.48795,-42.73332 -47.48795,-42.73332 z"
         id="use39"
         sodipodi:nodetypes="czzc"
         inkscape:transform-center-x="-21.643814"
         inkscape:transform-center-y="-39.366968" /><path
         style="font-variation-settings:normal;display:inline;fill:#9fff00;fill-opacity:1;stroke:#000000;stroke-width:1.5;stroke-linecap:butt;stroke-linejoin:miter;stroke-miterlimit:3.1;stroke-dasharray:none;stroke-dashoffset:0;stroke-opacity:1;paint-order:fill markers stroke;stop-color:#000000"
         d="m 104.88086,105.89171 c 0,0 36.11327,30.55041 36.32232,52.3384 0.20905,21.78798 -22.29719,29.23206 -35.68284,11.54299 -13.385648,-17.68907 -0.63948,-63.88139 -0.63948,-63.88139 z"
         id="use40"
         sodipodi:nodetypes="czzc"
         inkscape:transform-center-x="-21.643814"
         inkscape:transform-center-y="-39.366968" /><path
         style="font-variation-settings:normal;display:inline;fill:#00ff96;fill-opacity:1;stroke:#000000;stroke-width:1.5;stroke-linecap:butt;stroke-linejoin:miter;stroke-miterlimit:3.1;stroke-dasharray:none;stroke-dashoffset:0;stroke-opacity:1;paint-order:fill markers stroke;stop-color:#000000"
         d="m 102.92751,106.70373 c 0,0 -36.11327,30.55042 -36.322316,52.33841 -0.209052,21.78798 22.297186,29.23206 35.682836,11.54299 13.38565,-17.68907 0.63948,-63.8814 0.63948,-63.8814 z"
         id="use41"
         sodipodi:nodetypes="czzc"
         inkscape:transform-center-x="-21.643814"
         inkscape:transform-center-y="-39.366968" /><path
         style="font-variation-settings:normal;display:inline;fill:#00ffff;fill-opacity:1;stroke:#000000;stroke-width:1.5;stroke-linecap:butt;stroke-linejoin:miter;stroke-miterlimit:3.1;stroke-dasharray:none;stroke-dashoffset:0;stroke-opacity:1;paint-order:fill markers stroke;stop-color:#000000"
         d="m 102.78953,105.14316 c 0,0 -46.927818,-5.93937 -63.118373,8.64233 -16.190557,14.5817 -6.452461,36.19453 15.630426,34.09099 22.082887,-2.10355 47.487947,-42.73332 47.487947,-42.73332 z"
         id="use42"
         sodipodi:nodetypes="czzc"
         inkscape:transform-center-x="-21.643814"
         inkscape:transform-center-y="-39.366968" /><path
         style="font-variation-settings:normal;display:inline;fill:#9e00ff;fill-opacity:1;stroke:#000000;stroke-width:1.5;stroke-linecap:butt;stroke-linejoin:miter;stroke-miterlimit:3.1;stroke-dasharray:none;stroke-dashoffset:0;stroke-opacity:1;paint-order:fill markers stroke;stop-color:#000000"
         d="m 103.29441,106.39736 c 0,0 7.68028,-46.674507 -6.28928,-63.39609 C 83.03557,26.279686 61.07557,35.207366 62.3565,57.353201 c 1.28093,22.145836 40.93791,49.044159 40.93791,49.044159 z"
         id="use43"
         sodipodi:nodetypes="czzc"
         inkscape:transform-center-x="-21.643814"
         inkscape:transform-center-y="-39.366968" /><path
         style="font-variation-settings:normal;display:inline;fill:#0077ff;fill-opacity:1;stroke:#000000;stroke-width:1.5;stroke-linecap:butt;stroke-linejoin:miter;stroke-miterlimit:3.1;stroke-dasharray:none;stroke-dashoffset:0;stroke-opacity:1;paint-order:fill markers stroke;stop-color:#000000"
         d="m 102.44234,104.41494 c 0,0 -24.86818,-40.237675 -46.385197,-43.669594 -21.517014,-3.431923 -32.210583,17.724463 -16.6978,33.581081 15.512785,15.856623 63.082997,10.088513 63.082997,10.088513 z"
         id="use44"
         sodipodi:nodetypes="czzc"
         inkscape:transform-center-x="-21.643814"
         inkscape:transform-center-y="-39.366968" /></g><g
       id="g14"
       inkscape:label="petals-5"
       transform="matrix(0.62759536,0,0,0.62759536,-15.067298,-15.894436)"><path
         style="font-variation-settings:normal;opacity:1;fill:#ff00ff;fill-opacity:1;stroke:#000000;stroke-width:1.5;stroke-linecap:butt;stroke-linejoin:miter;stroke-miterlimit:3.1;stroke-dasharray:none;stroke-dashoffset:0;stroke-opacity:1;paint-order:fill markers stroke;stop-color:#000000;stop-opacity:1"
         d="m 103.69725,104.17292 c 0,0 -23.41382,-45.038242 -18.815446,-58.242494 4.598374,-13.204251 19.101826,-18.476538 19.101826,-18.476538 0,0 14.14538,5.223329 19.4687,18.534246 5.32332,13.310917 -19.75508,58.184786 -19.75508,58.184786 z"
         id="path13"
         sodipodi:nodetypes="czczc"
         inkscape:transform-center-x="-0.23749614"
         inkscape:transform-center-y="-40.940549" /><use
         x="0"
         y="0"
         xlink:href="#path13"
         inkscape:transform-center-x="-40.598331"
         inkscape:transform-center-y="-7.2728835"
         id="use14"
         transform="rotate(82.448981,103.59984,105.87025)"
         style="display:none" /><use
         x="0"
         y="0"
         xlink:href="#use14"
         inkscape:transform-center-x="40.459747"
         inkscape:transform-center-y="-8.6051897"
         id="use15"
         transform="matrix(-1,0,0,1,207.19967,0)" /><use
         x="0"
         y="0"
         xlink:href="#path13"
         inkscape:transform-center-x="-28.210358"
         inkscape:transform-center-y="32.569845"
         id="use16"
         transform="rotate(140.4623,103.59984,105.87025)"
         style="display:none" /><use
         x="0"
         y="0"
         xlink:href="#use16"
         inkscape:transform-center-x="28.21036"
         inkscape:transform-center-y="32.569845"
         id="use17"
         transform="matrix(-1,0,0,1,207.19967,0)" /><path
         style="font-variation-settings:normal;fill:#ffcb00;fill-opacity:1;stroke:#000000;stroke-width:1.5;stroke-linecap:butt;stroke-linejoin:miter;stroke-miterlimit:3.1;stroke-dasharray:none;stroke-dashoffset:0;stroke-opacity:1;paint-order:fill markers stroke;stop-color:#000000"
         d="m 105.29525,105.74377 c 0,0 41.5709,-29.129209 55.26491,-26.305868 13.69402,2.823341 20.82647,16.508196 20.82647,16.508196 0,0 -3.31921,14.709112 -15.81516,21.735442 -12.49596,7.02633 -60.27622,-11.93777 -60.27622,-11.93777 z"
         id="use33"
         sodipodi:nodetypes="czczc"
         inkscape:transform-center-x="-0.23749614"
         inkscape:transform-center-y="-40.940549" /><path
         style="font-variation-settings:normal;fill:#00c0ff;fill-opacity:1;stroke:#000000;stroke-width:1.5;stroke-linecap:butt;stroke-linejoin:miter;stroke-miterlimit:3.1;stroke-dasharray:none;stroke-dashoffset:0;stroke-opacity:1;paint-order:fill markers stroke;stop-color:#000000"
         d="m 101.90442,105.74377 c 0,0 -41.570897,-29.129209 -55.264912,-26.305868 -13.694015,2.823341 -20.826466,16.508196 -20.826466,16.508196 0,0 3.319204,14.709112 15.81516,21.735442 12.495956,7.02633 60.276218,-11.93777 60.276218,-11.93777 z"
         id="use34"
         sodipodi:nodetypes="czczc"
         inkscape:transform-center-x="-0.23749614"
         inkscape:transform-center-y="-40.940549" /><path
         style="font-variation-settings:normal;fill:#00ffd7;fill-opacity:1;stroke:#000000;stroke-width:1.5;stroke-linecap:butt;stroke-linejoin:miter;stroke-miterlimit:3.1;stroke-dasharray:none;stroke-dashoffset:0;stroke-opacity:1;paint-order:fill markers stroke;stop-color:#000000"
         d="m 102.59446,107.24125 c 0,0 -46.727584,19.82885 -51.58693,32.93931 -4.859346,13.11045 2.969538,26.40917 2.969538,26.40917 0,0 14.234098,4.97648 26.813014,-1.90023 12.578917,-6.8767 21.804378,-57.44825 21.804378,-57.44825 z"
         id="use35"
         sodipodi:nodetypes="czczc"
         inkscape:transform-center-x="-0.23749614"
         inkscape:transform-center-y="-40.940549" /><path
         style="font-variation-settings:normal;fill:#cfff00;fill-opacity:1;stroke:#000000;stroke-width:1.5;stroke-linecap:butt;stroke-linejoin:miter;stroke-miterlimit:3.1;stroke-dasharray:none;stroke-dashoffset:0;stroke-opacity:1;paint-order:fill markers stroke;stop-color:#000000"
         d="m 104.60521,107.24125 c 0,0 46.72758,19.82885 51.58693,32.93931 4.85935,13.11045 -2.96954,26.40917 -2.96954,26.40917 0,0 -14.2341,4.97648 -26.81301,-1.90023 -12.57892,-6.8767 -21.80438,-57.44825 -21.80438,-57.44825 z"
         id="use36"
         sodipodi:nodetypes="czczc"
         inkscape:transform-center-x="-0.23749614"
         inkscape:transform-center-y="-40.940549" /></g><g
       id="g17"
       inkscape:label="petals-3"
       transform="matrix(0.62759536,0,0,0.62759536,-15.067298,-15.894436)"><path
         style="font-variation-settings:normal;opacity:1;fill:#00ff00;fill-opacity:1;stroke:#000000;stroke-width:1.5;stroke-linecap:butt;stroke-linejoin:miter;stroke-miterlimit:3.1;stroke-dasharray:none;stroke-dashoffset:0;stroke-opacity:1;paint-order:fill markers stroke;stop-color:#000000;stop-opacity:1"
         d="m 103.90823,105.66132 c 0,0 28.20122,36.87527 25.95612,49.28441 -2.24509,12.40914 -25.83075,27.75734 -25.83075,27.75734 0,0 -21.457373,-14.76299 -23.620546,-26.89605 -2.163172,-12.13305 23.495176,-50.1457 23.495176,-50.1457 z"
         id="path17"
         sodipodi:nodetypes="czczc"
         inkscape:transform-center-x="-3.7351653e-05"
         inkscape:transform-center-y="33.695776"
         inkscape:label="green" /><use
         x="0"
         y="0"
         xlink:href="#path17"
         inkscape:transform-center-x="23.53102"
         inkscape:transform-center-y="-24.472659"
         id="use18"
         transform="rotate(137.44403,103.43917,105.91404)"
         style="display:none" /><use
         x="0"
         y="0"
         xlink:href="#use18"
         inkscape:transform-center-x="-26.32548"
         inkscape:transform-center-y="-21.644915"
         id="use19"
         transform="matrix(-0.99999998,1.8430569e-4,1.8430569e-4,0.99999998,207.95505,0.00139989)"
         style="display:none" /><path
         style="font-variation-settings:normal;fill:#ff0000;fill-opacity:1;stroke:#000000;stroke-width:1.5;stroke-linecap:butt;stroke-linejoin:miter;stroke-miterlimit:3.1;stroke-dasharray:none;stroke-dashoffset:0;stroke-opacity:1;paint-order:fill markers stroke;stop-color:#000000"
         d="m 104.7101,106.43786 c 0,0 45.71112,-8.098609 52.4478,-18.759018 6.73669,-10.660403 -0.26179,-37.916079 -0.26179,-37.916079 0,0 -25.79089,-3.632415 -35.58865,3.843834 -9.79776,7.476242 -16.59736,52.831263 -16.59736,52.831263 z"
         id="use31"
         sodipodi:nodetypes="czczc"
         inkscape:transform-center-x="-3.7351653e-05"
         inkscape:transform-center-y="33.695776"
         inkscape:label="red" /><path
         style="font-variation-settings:normal;fill:#0000ff;fill-opacity:1;stroke:#000000;stroke-width:1.5;stroke-linecap:butt;stroke-linejoin:miter;stroke-miterlimit:3.1;stroke-dasharray:none;stroke-dashoffset:0;stroke-opacity:1;paint-order:fill markers stroke;stop-color:#000000"
         d="m 103.26457,106.41743 c 0,0 -45.712617,-8.090184 -52.451265,-18.749352 -6.738655,-10.65916 0.254801,-37.916126 0.254801,-37.916126 0,0 25.790226,-3.637168 35.589367,3.837275 9.799133,7.474436 16.607097,52.828203 16.607097,52.828203 z"
         id="use32"
         sodipodi:nodetypes="czczc"
         inkscape:transform-center-x="-3.7351653e-05"
         inkscape:transform-center-y="33.695776"
         inkscape:label="blue" /></g><g
       id="g19"
       inkscape:label="petals-2"
       transform="matrix(0.62759536,0,0,0.62759536,-15.067298,-15.894436)"><path
         style="font-variation-settings:normal;opacity:1;fill:#000000;fill-opacity:1;stroke:#000000;stroke-width:1.5;stroke-linecap:butt;stroke-linejoin:miter;stroke-miterlimit:3.1;stroke-dasharray:none;stroke-dashoffset:0;stroke-opacity:1;paint-order:fill markers stroke;stop-color:#000000;stop-opacity:1"
         d="m 104.13812,104.94754 c 0,0 -28.240756,32.43834 -41.116727,32.77411 -12.875971,0.33577 -27.155638,-2.31053 -27.155638,-2.31053 0,0 8.410642,-11.28528 17.034791,-21.38994 8.624149,-10.10466 51.237574,-9.07364 51.237574,-9.07364 z"
         id="path19"
         sodipodi:nodetypes="czczc"
         inkscape:transform-center-x="31.023696"
         inkscape:transform-center-y="14.618167" /><use
         x="0"
         y="0"
         xlink:href="#path19"
         inkscape:transform-center-x="-31.023696"
         inkscape:transform-center-y="14.618167"
         id="use20"
         transform="matrix(-1,0,0,1,207.95497,0)"
         style="display:none" /><path
         style="font-variation-settings:normal;fill:#ffffff;fill-opacity:1;stroke:#000000;stroke-width:1.5;stroke-linecap:butt;stroke-linejoin:miter;stroke-miterlimit:3.1;stroke-dasharray:none;stroke-dashoffset:0;stroke-opacity:1;paint-order:fill markers stroke;stop-color:#000000"
         d="m 103.81685,104.94754 c 0,0 28.24076,32.43834 41.11673,32.77411 12.87597,0.33577 27.15563,-2.31053 27.15563,-2.31053 0,0 -8.41064,-11.28528 -17.03479,-21.38994 -8.62415,-10.10466 -51.23757,-9.07364 -51.23757,-9.07364 z"
         id="use37"
         sodipodi:nodetypes="czczc"
         inkscape:transform-center-x="31.023696"
         inkscape:transform-center-y="14.618167" /></g><path
       id="path20"
       style="display:inline;opacity:1;fill:#ffffff;fill-rule:evenodd;stroke:#000000;stroke-width:0.590259;stroke-linecap:square;stroke-linejoin:miter;stroke-miterlimit:999;stroke-dasharray:none;paint-order:normal"
       d="m 71.993129,52.275509 c 0,11.988232 -9.718385,21.706618 -21.706616,21.706618 -11.988231,0 -21.706612,-9.718386 -21.706612,-21.706618 1e-6,-10.526438 7.136083,-19.243368 17.079221,-21.22717 4.480542,0.829062 2.879628,-28.7537611 2.879628,-28.7537611 l 3.157619,0.079728 c 0,0 0.05869,27.7680081 2.716992,28.5510021 10.03154,1.914041 17.579768,10.761064 17.579768,21.350201 z"
       sodipodi:nodetypes="sssccccs"
       inkscape:label="petal-1" /><path
       style="font-variation-settings:'wght' 700;display:inline;opacity:1;fill:none;stroke:#000000;stroke-width:2;stroke-miterlimit:9.6;stroke-dasharray:none;paint-order:fill markers stroke"
       d="m 36.742361,45.71195 18.6759,-7.773022 7.844489,18.708062 -6.898412,6.887664 6.834166,-17.904777 -18.726179,-7.702665 -7.735247,18.795549 6.937104,6.786041 z"
       id="path9"
       sodipodi:nodetypes="ccccccccc"
       inkscape:label="star" /><rect
       style="font-variation-settings:normal;opacity:1;vector-effect:none;fill:#ffffff;fill-opacity:1;fill-rule:evenodd;stroke:none;stroke-width:4.85412;stroke-linecap:butt;stroke-linejoin:bevel;stroke-miterlimit:5;stroke-dasharray:4.85412;stroke-dashoffset:0;stroke-opacity:1;-inkscape-stroke:none;stop-color:#000000;stop-opacity:1"
       id="rect44"
       width="2.5264173"
       height="21.234964"
       x="48.888119"
       y="0.73239917"
       ry="0.092031389" /></g></svg>
