<?xml version="1.0" encoding="UTF-8" standalone="no"?>
<!-- Created with Inkscape (http://www.inkscape.org/) -->

<svg
   width="100mm"
   height="100mm"
   viewBox="0 0 100 100"
   version="1.1"
   id="svg1"
   xml:space="preserve"
   inkscape:version="1.4.3 (0d15f75042, 2025-12-25)"
   sodipodi:docname="flower-11-31.svg"
   inkscape:export-filename="flower-of-emanation.png"
   inkscape:export-xdpi="476.25"
   inkscape:export-ydpi="476.25"
   xmlns:inkscape="http://www.inkscape.org/namespaces/inkscape"
   xmlns:sodipodi="http://sodipodi.sourceforge.net/DTD/sodipodi-0.dtd"
   xmlns:xlink="http://www.w3.org/1999/xlink"
   xmlns="http://www.w3.org/2000/svg"
   xmlns:svg="http://www.w3.org/2000/svg"><sodipodi:namedview
   id="namedview1"
   pagecolor="#ffffff"
   bordercolor="#000000"
   borderopacity="0.25"
   inkscape:showpageshadow="2"
   inkscape:pageopacity="0.0"
   inkscape:pagecheckerboard="0"
   inkscape:deskcolor="#d1d1d1"
   inkscape:document-units="mm"
   showguides="true"
   inkscape:zoom="1"
   inkscape:cx="340.5"
   inkscape:cy="257"
   inkscape:window-width="1536"
   inkscape:window-height="891"
   inkscape:window-x="0"
   inkscape:window-y="0"
   inkscape:window-maximized="1"
   inkscape:current-layer="layer2"
   inkscape:export-bgcolor="#00000000"><sodipodi:guide
     position="50,110"
     orientation="-1,0"
     id="guide4"
     inkscape:locked="false"
     inkscape:label=""
     inkscape:color="rgb(0,134,229)" /></sodipodi:namedview><defs
   id="defs1" />
  <symbol
   inkscape:label="Star 7-17"
   inkscape:groupmode="layer"
   id="symbol"
   height="100"
   width="100"
   viewBox="0 0 100 100">
<g
   inkscape:groupmode="layer"
   id="layer2"
   inkscape:label="Petals"
   style="display:inline"
   transform="matrix(1.2641423,0,0,1.2641423,-22.311975,-22.574586)"><g
     id="g48"
     inkscape:label="p13"
     style="display:inline;opacity:1;stroke-width:2.44015592;stroke-dasharray:none"
     transform="matrix(0.64836036,0,0,0.64836036,2.3296546,1.8294776)"><use
       x="0"
       y="0"
       xlink:href="#path39"
       id="use39"
       transform="matrix(-0.83310508,0.55311474,0.55311474,0.83310508,107.21337,-32.496305)"
       inkscape:label="p13:12"
       style="display:inline;stroke-width:2.44015593;stroke-dasharray:none" /><use
       x="0"
       y="0"
       xlink:href="#path39"
       id="use42"
       transform="matrix(-0.60262547,0.79802413,0.79802413,0.60262547,67.948683,-34.585246)"
       inkscape:label="p13:11"
       style="display:inline;stroke-width:2.44015596;stroke-dasharray:none" /><use
       x="0"
       y="0"
       xlink:href="#path39"
       id="use46"
       transform="matrix(-0.06488836,0.99789253,0.99789253,0.06488836,4.4599821,-5.1513166)"
       inkscape:label="p13:10"
       style="display:inline;stroke-width:2.44015592;stroke-dasharray:none" /><use
       x="0"
       y="0"
       xlink:href="#path39"
       id="use50"
       transform="matrix(0.22597012,0.97413423,0.97413423,-0.22597012,-18.429102,22.122249)"
       inkscape:label="p13:9"
       style="display:inline;stroke-width:2.44015593;stroke-dasharray:none" /><use
       x="0"
       y="0"
       xlink:href="#path39"
       id="use48"
       transform="matrix(0.74179446,0.67062731,0.67062731,-0.74179446,-36.532223,91.86309)"
       inkscape:label="p13:8"
       style="display:inline;fill:#00ff6a;fill-opacity:1;stroke-width:2.44015591;stroke-dasharray:none" /><use
       x="0"
       y="0"
       xlink:href="#path39"
       id="use44"
       transform="matrix(0.98779446,0.15576303,0.15576303,-0.98779446,-11.912182,157.26291)"
       inkscape:label="p13:7"
       style="display:inline;stroke-width:2.4401559;stroke-dasharray:none" /><use
       x="0"
       y="0"
       xlink:href="#path39"
       id="use43"
       transform="rotate(171.65976,84.649204,85.74197)"
       inkscape:label="p13:6"
       style="display:inline;stroke-width:2.44015592;stroke-dasharray:none" /><use
       x="0"
       y="0"
       xlink:href="#path39"
       id="use47"
       transform="rotate(137.8845,84.934809,85.57475)"
       inkscape:label="p13:5"
       style="display:inline;stroke-width:2.44015592;stroke-dasharray:none" /><use
       x="0"
       y="0"
       xlink:href="#path39"
       id="use49"
       transform="rotate(103.77238,85.011108,85.296704)"
       inkscape:label="p13:4"
       style="display:inline;stroke-width:2.44015592;stroke-dasharray:none" /><use
       x="0"
       y="0"
       xlink:href="#path39"
       id="use45"
       transform="rotate(85.702783,84.530898,85.642265)"
       inkscape:label="p13:3"
       style="display:inline;stroke-width:2.44015592;stroke-dasharray:none" /><use
       x="0"
       y="0"
       xlink:href="#path39"
       id="use40"
       transform="rotate(50.730556,85.13641,85.224741)"
       inkscape:label="p13:2"
       style="display:inline;stroke-width:2.44015592;stroke-dasharray:none" /><use
       x="0"
       y="0"
       xlink:href="#path39"
       id="use41"
       transform="rotate(34.067559,84.423047,85.883345)"
       inkscape:label="p13:1"
       style="display:inline;stroke-width:2.44015592;stroke-dasharray:none" /><path
       style="display:inline;opacity:1;fill:#ffffff;fill-opacity:1;stroke:#000000;stroke-width:3.0501949;stroke-miterlimit:3.1;stroke-dasharray:none;stroke-opacity:1;paint-order:fill markers stroke"
       d="m 74.600159,37.511236 c 0.879203,-7.23354 7.798191,-12.342997 10.168434,-9.52021 3.057632,-2.765216 9.814523,1.904004 10.558101,9.4421 C 96.296471,47.26434 84.998876,61.60192 84.998876,61.60192 79.788151,53.191992 73.377694,47.568923 74.600159,37.511236 Z"
       id="path39"
       sodipodi:nodetypes="scscs"
       inkscape:label="p13:0" /></g><g
     id="g50"
     inkscape:label="p8"
     style="display:inline;stroke-width:2.44015592;stroke-dasharray:none"
     transform="matrix(0.64836036,0,0,0.64836036,4.7448052,4.7621602)"><use
       x="0"
       y="0"
       xlink:href="#path50"
       id="use51"
       inkscape:label="p8:7"
       transform="rotate(-34.6033,80.379717,80.982544)"
       style="stroke-width:2.44015592;stroke-dasharray:none" /><use
       x="0"
       y="0"
       xlink:href="#path50"
       id="use52"
       inkscape:label="p8:6"
       transform="rotate(-86.015264,80.433265,81.29834)"
       style="stroke-width:2.44015592;stroke-dasharray:none" /><use
       x="0"
       y="0"
       xlink:href="#path50"
       id="use53"
       inkscape:label="p8:5"
       transform="rotate(-137.96626,80.39634,81.13565)"
       style="stroke-width:2.44015592;stroke-dasharray:none" /><use
       x="0"
       y="0"
       xlink:href="#path50"
       id="use54"
       inkscape:label="p8:4"
       transform="rotate(-171.30931,80.632376,81.329608)"
       style="stroke-width:2.44015592;stroke-dasharray:none" /><use
       x="0"
       y="0"
       xlink:href="#path50"
       id="use32"
       inkscape:label="p8:3"
       transform="matrix(0.98910706,-0.14719794,-0.14719794,-0.98910706,12.898709,173.77453)"
       style="display:inline;stroke-width:2.44015591;stroke-dasharray:none" /><use
       x="0"
       y="0"
       xlink:href="#path50"
       id="use56"
       inkscape:label="p8:2"
       transform="matrix(0.74469207,-0.66740821,-0.66740821,-0.74469207,75.379223,195.50242)"
       style="stroke-width:2.44015592;stroke-dasharray:none" /><use
       x="0"
       y="0"
       xlink:href="#path50"
       id="use57"
       inkscape:label="p8:1"
       transform="matrix(-0.07612426,-0.99709834,-0.99709834,0.07612426,168.23449,155.59024)"
       style="stroke-width:2.44015592;stroke-dasharray:none" /><path
       style="display:inline;opacity:1;fill:#ffffff;fill-opacity:1;stroke:#000000;stroke-width:3.0501949;stroke-miterlimit:3.1;stroke-dasharray:none;stroke-opacity:1;paint-order:fill markers stroke"
       d="m 83.578873,35.586514 c 3.140951,-6.608151 7.37568,-10.229862 13.660238,-8.644973 6.284559,1.58489 9.028039,7.400752 7.349179,14.755347 -2.19855,9.631179 -20.831987,28.734335 -20.831987,28.734335 0.161846,-13.882019 -6.232541,-22.105545 -0.17743,-34.844709 z"
       id="path50"
       sodipodi:nodetypes="szscs"
       inkscape:label="p8:0" /></g><g
     id="g57"
     inkscape:label="p5"
     style="opacity:1;stroke-width:2.44015592;stroke-dasharray:none"
     transform="matrix(0.64836036,0,0,0.64836036,2.3296546,1.8294776)"><use
       x="0"
       y="0"
       xlink:href="#path57"
       id="use59"
       transform="rotate(-86.822197,85.002479,85.212163)"
       inkscape:label="p5:4"
       style="stroke-width:2.44015592;stroke-dasharray:none" /><use
       x="0"
       y="0"
       xlink:href="#path57"
       id="use60"
       transform="rotate(-139.22336,84.456847,84.526361)"
       inkscape:label="p5:3"
       style="stroke-width:2.44015592;stroke-dasharray:none" /><use
       x="0"
       y="0"
       xlink:href="#path57"
       id="use61"
       transform="rotate(136.81881,84.012094,85.020324)"
       inkscape:label="p5:2"
       style="stroke-width:2.44015592;stroke-dasharray:none" /><use
       x="0"
       y="0"
       xlink:href="#path57"
       id="use58"
       transform="rotate(53.566525,85.91289,84.033104)"
       inkscape:label="p5:1"
       style="display:inline;stroke-width:2.44015592;stroke-dasharray:none" /><path
       style="display:inline;opacity:1;fill:#ffffff;fill-opacity:1;stroke:#000000;stroke-width:3.0501949;stroke-miterlimit:3.1;stroke-dasharray:none;stroke-opacity:1;paint-order:fill markers stroke"
       d="m 95.060465,49.086842 c 6.505475,-6.794823 17.311125,0.280833 21.782825,0.275281 0.0838,5.467616 7.87475,15.256541 1.8196,21.410727 -8.79736,8.941249 -30.604299,10.310272 -30.604299,10.310272 0,0 -1.237024,-23.390932 7.001874,-31.99628 z"
       id="path57"
       sodipodi:nodetypes="scscs"
       inkscape:label="p5:0" /></g><g
     id="g61"
     inkscape:label="p3"
     style="display:inline;opacity:1"
     transform="matrix(0.64836036,0,0,0.64836036,2.3296546,1.8294776)"><use
       x="0"
       y="0"
       xlink:href="#path61"
       id="use63"
       inkscape:label="p3:2"
       transform="rotate(-137.74519,84.297098,85.264358)"
       style="stroke-width:2.44015592;stroke-dasharray:none" /><use
       x="0"
       y="0"
       xlink:href="#path61"
       id="use67"
       inkscape:label="p3:1"
       transform="rotate(139.52193,85.592425,85.531367)"
       style="display:inline;fill:#ffffff;fill-opacity:1;stroke-width:2.44015592;stroke-dasharray:none" /><path
       style="display:inline;opacity:1;fill:#ffffff;fill-opacity:1;stroke:#000000;stroke-width:3.0501949;stroke-miterlimit:3.1;stroke-dasharray:none;stroke-opacity:1;paint-order:fill markers stroke"
       d="m 70.44972,58.6432 c 0.05476,-14.974771 10.303818,-9.29954 14.047888,-16.880471 2.840807,7.315759 13.743396,1.769172 13.608506,16.800671 -0.16415,18.291491 -12.867716,27.131218 -12.867716,27.131218 0,0 -14.858127,-8.059555 -14.788678,-27.051418 z"
       id="path61"
       sodipodi:nodetypes="scscs"
       inkscape:label="p3:0" /></g><g
     id="g65"
     inkscape:label="p2"
     style="display:inline;opacity:1;stroke-width:2.44015592;stroke-dasharray:none"
     transform="matrix(0.64836036,0,0,0.64836036,2.3296546,1.8294776)"><path
       style="display:inline;opacity:1;fill:#ffffff;fill-opacity:1;stroke:#000000;stroke-width:3.0501949;stroke-miterlimit:5.4;stroke-dasharray:none;stroke-opacity:1;paint-order:fill markers stroke"
       d="M 58.329382,85.132555 C 51.057477,81.846775 49.912121,75.705879 41.891739,68.9959 52.08015,70.146084 56.32092,67.631033 63.050956,68.836195 81.841685,72.20109 84.962311,85.67376 84.962311,85.67376 c 0,0 -12.319232,5.926382 -26.632929,-0.541205 z"
       id="path65"
       sodipodi:nodetypes="scscs"
       inkscape:label="p2:0" /><use
       x="0"
       y="0"
       xlink:href="#path65"
       id="use65"
       inkscape:label="p2:1"
       transform="matrix(-0.99999869,0.00162311,0.00162311,0.99999869,169.21717,-0.15417357)"
       style="display:inline;fill:none;stroke-width:2.4401559;stroke-dasharray:none" /></g></g><g
   inkscape:label="Layer 1"
   inkscape:groupmode="layer"
   id="layer1"
   transform="matrix(0.34408767,0,0,0.34408767,55.888006,58.542034)"
   style="display:inline;opacity:1"><circle
     style="display:inline;opacity:1;fill:#ffffff;fill-opacity:1;stroke:#000000;stroke-width:7.26559019;stroke-miterlimit:3.1;stroke-dasharray:none;stroke-opacity:1;paint-order:fill markers stroke"
     id="path63"
     cx="-16.675232"
     cy="-21.696005"
     r="45.932873" /><path
     style="font-variation-settings:'wght' 700;display:inline;opacity:1;fill:none;stroke:#000000;stroke-width:4.35935412;stroke-linecap:butt;stroke-miterlimit:10.2;stroke-dasharray:none;stroke-opacity:1;paint-order:fill markers stroke"
     d="M -16.77704,-61.479588 -46.349185,3.1109735 21.778501,-16.865423 -37.899208,-55.264098 -28.45539,12.84959 -52.268972,-38.653999 18.614075,-38.620056 -5.2062812,12.91393 4.3055173,-55.20558 -55.501456,-16.894134 12.612033,3.1592537 Z"
     id="path12"
     sodipodi:nodetypes="cccccccccccc"
     inkscape:label="hendecagram" /></g>
  </symbol>
  <use
   href="#symbol"
   id="use1"
   height="100"
   width="100"
   x="0"
   y="0"
   style="stroke-width:2;stroke-dasharray:none" />
</svg>
