<?xml version="1.0" encoding="UTF-8" standalone="no"?>
<!-- Created with Inkscape (http://www.inkscape.org/) -->

<svg
   width="100mm"
   height="100mm"
   viewBox="0 0 100 100"
   version="1.1"
   id="svg1"
   inkscape:version="1.4.3 (0d15f75042, 2025-12-25)"
   sodipodi:docname="koch-curve.svg"
   inkscape:export-filename="chaos-covn.png"
   inkscape:export-xdpi="130.05"
   inkscape:export-ydpi="130.05"
   xml:space="preserve"
   xmlns:inkscape="http://www.inkscape.org/namespaces/inkscape"
   xmlns:sodipodi="http://sodipodi.sourceforge.net/DTD/sodipodi-0.dtd"
   xmlns:xlink="http://www.w3.org/1999/xlink"
   xmlns="http://www.w3.org/2000/svg"
   xmlns:svg="http://www.w3.org/2000/svg"><defs
   id="defs1" /><sodipodi:namedview
   id="namedview1"
   pagecolor="#ffffff"
   bordercolor="#000000"
   borderopacity="0.25"
   inkscape:showpageshadow="2"
   inkscape:pageopacity="0.0"
   inkscape:pagecheckerboard="0"
   inkscape:deskcolor="#d1d1d1"
   inkscape:document-units="mm"
   inkscape:zoom="1.4142136"
   inkscape:cx="143.18912"
   inkscape:cy="175.36248"
   inkscape:window-width="1536"
   inkscape:window-height="891"
   inkscape:window-x="0"
   inkscape:window-y="0"
   inkscape:window-maximized="1"
   inkscape:current-layer="g5"
   inkscape:export-bgcolor="#a5a5a5ff"
   showguides="true"><sodipodi:guide
     position="50,50"
     orientation="0,1"
     id="guide1"
     inkscape:locked="false"
     inkscape:label=""
     inkscape:color="rgb(0,134,229)" /><sodipodi:guide
     position="50,50"
     orientation="-1,0"
     id="guide2"
     inkscape:locked="false"
     inkscape:label=""
     inkscape:color="rgb(0,134,229)" /><sodipodi:guide
     position="50,74.999999"
     orientation="0,1"
     id="guide3"
     inkscape:locked="false"
     inkscape:label=""
     inkscape:color="rgb(0,134,229)" /><sodipodi:guide
     position="50,25"
     orientation="0,1"
     id="guide4"
     inkscape:locked="false"
     inkscape:label=""
     inkscape:color="rgb(0,134,229)" /></sodipodi:namedview>
  <symbol
   inkscape:label="Chaos Star"
   inkscape:groupmode="layer"
   id="symbol"
   height="100"
   width="100"
   viewBox="-5 -5 110 110">
 <path
   id="path1"
   style="vector-effect:non-scaling-stroke;fill:none;stroke:#000000;stroke-linecap:square;stroke-miterlimit:1.1;paint-order:fill markers stroke"
   inkscape:transform-center-x="1.6655219e-06"
   inkscape:transform-center-y="-12.441858"
   transform="matrix(1.0902497,0,0,1.0861073,-4.0022725,-3.8922926)"
   d="m 49.477083,3.919838 39.682867,68.732747 -79.3657388,-2e-6 z" /><path
   id="path4"
   style="vector-effect:non-scaling-stroke;fill:none;stroke:#000000;stroke-linecap:square;stroke-miterlimit:1.1;paint-order:fill markers stroke"
   inkscape:transform-center-x="1.6655219e-06"
   inkscape:transform-center-y="12.441857"
   transform="matrix(1.0902497,0,0,-1.0861073,-4.0022725,103.87666)"
   d="M 36.396936,72.652584 9.7942112,72.652583 23.096308,49.612677 M 36.398843,26.572013 49.477083,3.919838 62.555972,26.573139 m 13.301997,23.039737 13.301981,23.039709 -26.605561,-10e-7"
   sodipodi:nodetypes="ccccccccc" /><g
   id="g5"><path
     id="path5"
     style="vector-effect:non-scaling-stroke;fill:none;stroke:#000000;stroke-linecap:square;stroke-miterlimit:1.1;paint-order:fill markers stroke"
     inkscape:transform-center-y="4.1472859"
     d="m 45.239006,8.5557388 -9.66787,10e-7 4.834202,8.3412692 m 19.17446,-7.2e-5 4.834159,-8.3411982 h -9.6689"
     sodipodi:nodetypes="cccccc" /><g
     id="g9"><use
       x="0"
       y="0"
       xlink:href="#path5"
       inkscape:transform-center-y="1.3824287"
       id="use5"
       transform="matrix(0.3333333,0,0,0.33333334,33.258208,0.21085452)" /><use
       x="0"
       y="0"
       xlink:href="#path5"
       inkscape:transform-center-y="-0.0038912669"
       id="use6"
       transform="matrix(0.16666665,0.28867511,-0.28867514,0.16666667,56.272435,-5.9424569)"
       inkscape:transform-center-x="0.79436841" /><use
       x="0"
       y="0"
       xlink:href="#use5"
       inkscape:transform-center-y="-0.0038916274"
       id="use2"
       transform="rotate(-60,49.840297,16.908248)"
       inkscape:transform-center-x="-0.79436152" /><path
       id="path3"
       style="vector-effect:non-scaling-stroke;fill:none;fill-rule:evenodd;stroke:#000000;stroke-linecap:square;stroke-miterlimit:1.1;paint-order:fill markers stroke"
       inkscape:transform-center-y="1.3824285"
       d="m 38.847137,19.446036 -3.222623,1e-6 1.6114,2.780423 m 25.381187,0.0058 1.611386,-2.7804 h -3.222966"
       sodipodi:nodetypes="cccccc" /></g><path
     id="path15"
     style="vector-effect:non-scaling-stroke;fill:none;fill-rule:evenodd;stroke:#000000;stroke-linecap:square;stroke-miterlimit:1.1;paint-order:fill markers stroke"
     inkscape:transform-center-y="0.46079316"
     d="m 39.899915,17.686998 h -1.074207 l 0.537133,0.926808 m 21.226542,0.08458 0.537128,-0.9268 h -1.074322"
     sodipodi:nodetypes="cccccc" /><use
     x="0"
     y="0"
     xlink:href="#g9"
     id="use10"
     transform="matrix(0.16666672,0.28867218,-0.28867523,0.16666496,56.236383,-5.9302009)" /><use
     x="0"
     y="0"
     xlink:href="#g9"
     id="use11"
     transform="matrix(0.3333308,-1.5234854e-6,-1.5257193e-6,0.33333256,33.298663,0.24312482)" /><use
     x="0"
     y="0"
     xlink:href="#g9"
     id="use12"
     transform="matrix(0.16666408,-0.2886737,0.2886737,0.1666676,27.103964,22.901849)" /><use
     x="0"
     y="0"
     xlink:href="#path5"
     inkscape:transform-center-y="4.1472859"
     id="use13" /><use
     x="0"
     y="0"
     xlink:href="#path5"
     inkscape:transform-center-y="-0.0012972656"
     id="use14"
     transform="matrix(0.05555556,0.09622504,-0.09622504,0.05555556,61.51792,14.615838)"
     inkscape:transform-center-x="0.26478885" /><use
     x="0"
     y="0"
     xlink:href="#path5"
     inkscape:transform-center-y="-0.0012972656"
     id="use15"
     transform="matrix(-0.05555556,0.09622504,0.09622504,0.05555556,38.367956,14.615838)"
     inkscape:transform-center-x="-0.26478919" /><path
     id="path16"
     style="vector-effect:non-scaling-stroke;fill:none;fill-rule:evenodd;stroke:#000000;stroke-linecap:square;stroke-miterlimit:1.1;paint-order:fill markers stroke"
     inkscape:transform-center-y="0.46079316"
     d="m 36.741452,23.144029 h -1.074207 l 0.537133,0.926808 m 27.510396,-0.01464 0.537128,-0.9268 H 63.17758"
     sodipodi:nodetypes="cccccc" /></g><use
   x="0"
   y="0"
   xlink:href="#g5"
   id="use4"
   transform="matrix(1,0,0,-1,0.01272568,99.924625)" /><use
   x="0"
   y="0"
   xlink:href="#g5"
   id="use3"
   transform="matrix(0.5,0.8660254,0.8660254,-0.5,-18.570749,31.900128)" /><use
   x="0"
   y="0"
   xlink:href="#g5"
   id="use7"
   transform="matrix(-0.5,0.8660254,0.8660254,0.5,31.298837,-18.47427)" /><use
   x="0"
   y="0"
   xlink:href="#g5"
   id="use8"
   transform="rotate(60,50.289114,50.099964)" /><use
   x="0"
   y="0"
   xlink:href="#g5"
   id="use9"
   transform="rotate(120,50.069164,50.250726)" /> 
  </symbol>
<style
   id="style1">
    path {
      stroke: #000000;
      stroke-width: 2.5;
      vector-effect: non-scaling-stroke;
    }
  </style>
  <use
   href="#symbol"
   id="use1"
   style="display:inline" 
   x="0"
   y="0"
   height="100"
   width="100"/>
</svg>
