<?xml version="1.0" encoding="UTF-8" standalone="no"?>
<!-- Created with Inkscape (http://www.inkscape.org/) -->

<svg
   width="100mm"
   height="100mm"
   viewBox="0 0 100 100"
   version="1.1"
   id="svg1"
   xml:space="preserve"
   inkscape:version="1.4.3 (0d15f75042, 2025-12-25)"
   sodipodi:docname="star-06-13.svg"
   inkscape:export-filename="sphere-06-13-star.png"
   inkscape:export-xdpi="96"
   inkscape:export-ydpi="96"
   xmlns:inkscape="http://www.inkscape.org/namespaces/inkscape"
   xmlns:sodipodi="http://sodipodi.sourceforge.net/DTD/sodipodi-0.dtd"
   xmlns="http://www.w3.org/2000/svg"
   xmlns:svg="http://www.w3.org/2000/svg"><sodipodi:namedview
     id="namedview1"
     pagecolor="#ffffff"
     bordercolor="#000000"
     borderopacity="0.25"
     inkscape:showpageshadow="2"
     inkscape:pageopacity="0.0"
     inkscape:pagecheckerboard="0"
     inkscape:deskcolor="#d1d1d1"
     inkscape:document-units="mm"
     showguides="true"
     inkscape:zoom="1"
     inkscape:cx="109.5"
     inkscape:cy="180"
     inkscape:window-width="1536"
     inkscape:window-height="891"
     inkscape:window-x="0"
     inkscape:window-y="0"
     inkscape:window-maximized="1"
     inkscape:current-layer="layer1"
     inkscape:export-bgcolor="#ffffffff"><sodipodi:guide
       position="151.359,226.3658"
       orientation="0,-1"
       id="guide1"
       inkscape:locked="false" /></sodipodi:namedview>
  <symbol
   inkscape:label="Star 6-13"
   inkscape:groupmode="layer"
   id="symbol"
   height="100"
   width="100"
   viewBox="0 0 100 100">
   <path
       style="display:inline;opacity:1;fill:none;stroke:#000000;stroke-width:3.5;stroke-miterlimit:9.6;stroke-dasharray:none;paint-order:fill markers stroke"
       d="M 23.472468,65.307029 77.111178,34.153675 50.409699,82.281717 23.762353,34.304567 77.090233,65.188025 49.752117,18.307388 Z"
       id="path2"
       sodipodi:nodetypes="ccccccc" />
<path
       style="display:inline;opacity:1;fill:none;stroke:#000000;stroke-width:2.21977;stroke-miterlimit:9.6;stroke-dasharray:none;paint-order:fill markers stroke"
       d="M 94.159813,32.844334 C 104.85934,60.238003 54.865268,105.39456 28.690496,91.986569 2.50106,78.571072 9.9399351,11.572008 38.439939,4.2499854 66.933005,-3.0702553 105.73413,52.031989 89.259711,76.404805 72.781743,100.78287 7.1778945,85.316271 3.3425124,56.142594 -0.49322252,26.966241 58.889491,-4.9344582 81.110269,14.358279 103.33166,33.651556 80.081543,96.934302 50.65473,97.22353 21.244585,97.5126 -3.2309822,34.734724 18.594471,15.019506 40.390938,-4.6695283 100.26724,25.998919 97.022132,55.191606 93.774492,84.407082 28.559204,101.20093 11.6203,77.176683 -5.3063649,53.1698 32.387702,-2.567476 60.977856,4.1738488 89.577386,10.917383 98.402662,77.643662 72.526239,91.56555 46.631637,105.49722 -4.234415,61.328721 5.916403,33.731935 16.071192,6.1243481 83.45778,5.4442424 94.159813,32.844334 Z"
       id="path5"
   />
  </symbol>
  <use
   href="#symbol"
   id="use1"
   height="100"
   width="100"
   x="0"
   y="0" />
</svg>
